M48
; DRILL file {KiCad 5.1.12-84ad8e8a86~92~ubuntu20.04.1} date Mon 11 Jul 2022 11:01:15 PM CDT
; FORMAT={-:-/ absolute / metric / decimal}
; #@! TF.CreationDate,2022-07-11T23:01:15-05:00
; #@! TF.GenerationSoftware,Kicad,Pcbnew,5.1.12-84ad8e8a86~92~ubuntu20.04.1
FMAT,2
METRIC
T1C0.400
T2C0.600
T3C0.900
T4C1.000
T5C1.000
T6C1.200
T7C4.220
T8C0.650
%
G90
G05
T1
X19.07Y-38.43
X19.07Y-45.804
X19.07Y-53.178
X19.07Y-60.552
X19.07Y-67.925
X19.07Y-75.299
X19.07Y-82.673
X19.07Y-90.047
X19.07Y-97.421
X19.07Y-104.795
X19.07Y-112.168
X19.07Y-119.542
X19.07Y-126.916
X19.07Y-134.29
X21.54Y-32.92
X22.47Y-58.09
X22.8Y-139.89
X23.07Y-90.863
X23.6Y-114.17
X23.71Y-65.86
X23.77Y-79.38
X23.77Y-94.72
X23.77Y-106.27
X24.06Y-53.38
X24.06Y-119.64
X24.9Y-128.76
X25.349Y-93.021
X25.43Y-86.48
X25.78Y-121.01
X25.93Y-107.71
X26.737Y-114.112
X26.847Y-68.738
X27.53Y-50.04
X27.98Y-100.6
X28.028Y-124.964
X28.47Y-76.37
X28.54Y-86.72
X29.33Y-141.32
X29.484Y-96.728
X29.513Y-68.247
X29.551Y-85.742
X29.622Y-125.457
X29.847Y-110.929
X29.93Y-114.521
X30.487Y-96.748
X30.528Y-57.435
X30.529Y-119.514
X30.587Y-85.725
X30.64Y-77.995
X30.92Y-30.9
X31.044Y-53.46
X31.53Y-119.952
X31.59Y-114.748
X31.685Y-121.972
X31.775Y-92.095
X32.0Y-100.6
X32.018Y-85.772
X32.03Y-136.93
X32.05Y-87.295
X32.29Y-56.491
X32.329Y-71.117
X32.7Y-105.7
X32.99Y-121.226
X33.02Y-132.69
X33.1Y-100.6
X33.529Y-55.939
X33.572Y-106.19
X34.058Y-57.894
X34.243Y-117.229
X34.25Y-86.75
X34.303Y-41.766
X34.42Y-136.34
X34.54Y-108.007
X34.795Y-90.865
X34.969Y-124.627
X35.003Y-64.898
X35.09Y-141.29
X35.255Y-96.437
X35.4Y-70.942
X35.427Y-108.55
X35.804Y-72.66
X36.217Y-111.582
X36.25Y-85.5
X36.285Y-106.079
X36.296Y-82.23
X36.439Y-70.942
X36.701Y-56.609
X37.215Y-123.718
X37.312Y-126.97
X37.483Y-102.275
X37.654Y-43.904
X37.665Y-72.931
X37.686Y-49.204
X37.69Y-85.43
X37.926Y-118.582
X38.0Y-100.6
X38.033Y-66.587
X38.77Y-100.941
X39.01Y-66.375
X39.016Y-43.427
X39.45Y-117.98
X39.966Y-119.739
X40.116Y-43.8
X40.4Y-141.29
X40.87Y-49.106
X41.02Y-30.66
X41.306Y-56.079
X41.314Y-124.375
X42.03Y-117.41
X42.344Y-86.551
X42.496Y-114.261
X42.9Y-70.9
X43.024Y-97.755
X43.036Y-54.155
X43.26Y-112.942
X43.3Y-117.41
X43.6Y-86.5
X43.6Y-88.8
X43.719Y-102.272
X44.11Y-119.14
X44.25Y-70.75
X44.43Y-138.462
X44.517Y-98.319
X44.6Y-88.8
X45.209Y-119.14
X45.7Y-89.576
X46.31Y-108.91
X46.62Y-117.27
X48.49Y-117.27
X50.21Y-117.28
X50.995Y-131.808
X52.008Y-66.378
X52.425Y-64.298
X53.089Y-82.7
X53.625Y-107.42
X54.864Y-46.882
X57.247Y-130.382
X57.873Y-62.764
X58.426Y-131.072
X59.083Y-113.125
X60.939Y-129.787
X61.067Y-97.143
X61.378Y-120.37
X62.62Y-41.916
X62.758Y-64.162
X62.852Y-75.293
X63.645Y-113.325
X64.694Y-113.355
X64.991Y-56.79
X66.145Y-115.275
X66.308Y-41.87
X67.053Y-137.859
X67.909Y-40.975
X68.351Y-114.925
X69.022Y-76.182
X69.308Y-96.665
X71.653Y-90.828
X73.219Y-137.597
X73.7Y-116.47
X76.12Y-67.223
X79.7Y-116.47
X85.7Y-116.47
X93.7Y-116.47
X102.7Y-116.47
X109.003Y-37.743
X109.7Y-116.47
X110.301Y-110.185
X114.561Y-35.998
X115.551Y-111.085
X116.699Y-36.969
X120.219Y-42.347
X121.279Y-77.989
X121.7Y-116.47
X123.706Y-34.152
X130.7Y-116.47
X140.7Y-116.47
X146.7Y-116.47
X157.7Y-116.47
X166.7Y-116.47
X169.849Y-33.55
X172.14Y-59.35
X172.974Y-79.788
X176.7Y-116.47
X180.264Y-100.413
X189.7Y-116.47
X191.809Y-137.597
X199.7Y-116.47
X206.7Y-116.47
X218.7Y-116.47
X218.909Y-111.085
X225.22Y-100.081
X228.7Y-116.47
X230.427Y-98.038
X232.7Y-116.47
X235.7Y-116.47
X239.7Y-115.47
X245.096Y-112.885
X245.7Y-116.47
X251.7Y-113.47
X255.7Y-116.47
X259.52Y-99.074
X259.7Y-113.47
X260.489Y-99.982
X263.7Y-116.47
X266.7Y-113.47
X272.7Y-114.47
X273.7Y-111.47
X277.412Y-116.7
X283.7Y-112.47
X290.7Y-112.47
X292.202Y-52.856
X293.324Y-43.235
X296.7Y-112.47
X301.1Y-81.77
X301.7Y-112.47
X307.75Y-112.77
X312.7Y-112.47
X317.35Y-112.87
X318.111Y-119.275
X319.008Y-117.6
X321.652Y-35.976
X328.352Y-54.194
X330.57Y-111.65
X331.641Y-89.182
X332.43Y-113.56
X334.11Y-111.65
X335.45Y-140.49
X335.782Y-33.695
X336.81Y-112.97
X336.855Y-93.94
X338.092Y-68.999
X338.619Y-106.623
X339.35Y-111.12
X339.63Y-137.19
X341.747Y-36.758
X342.0Y-111.875
X343.215Y-111.875
X343.65Y-132.85
X344.24Y-141.45
X345.55Y-115.15
X346.9Y-115.1
X347.06Y-141.42
X347.214Y-85.165
X347.36Y-110.46
X347.75Y-103.5
X347.77Y-132.85
X348.492Y-101.775
X348.53Y-111.44
X348.588Y-122.271
X348.85Y-110.37
X349.081Y-103.689
X349.16Y-112.4
X349.646Y-75.354
X349.651Y-95.855
X350.73Y-110.17
X350.844Y-75.354
X351.3Y-97.97
X351.36Y-114.31
X351.86Y-107.682
X352.5Y-133.0
X352.5Y-134.0
X352.65Y-65.52
X352.79Y-114.3
X352.801Y-33.973
X353.115Y-100.513
X353.536Y-107.686
X353.892Y-99.499
X353.976Y-94.777
X354.19Y-100.511
X354.22Y-114.32
X354.326Y-35.19
X354.586Y-68.7
X354.586Y-75.011
X354.587Y-107.681
X355.216Y-100.225
X355.475Y-138.3
X355.706Y-75.044
X355.787Y-120.263
X355.79Y-83.91
X355.805Y-38.692
X356.1Y-108.42
X356.275Y-104.47
X356.399Y-89.583
X356.4Y-37.802
X356.525Y-138.3
X356.55Y-46.32
X356.55Y-48.17
X356.65Y-61.82
X356.796Y-125.753
X356.96Y-31.87
X356.98Y-30.33
X357.421Y-109.7
X357.5Y-96.12
X357.55Y-97.07
X357.684Y-80.114
X357.7Y-106.895
X357.787Y-126.225
X357.849Y-93.076
X358.09Y-132.08
X358.09Y-133.02
X358.19Y-120.286
X358.5Y-64.97
X358.5Y-66.62
X358.505Y-110.449
X358.667Y-41.357
X358.738Y-46.137
X358.74Y-43.84
X358.806Y-121.558
X358.957Y-80.118
X359.1Y-126.222
X359.225Y-84.145
X359.367Y-120.165
X359.481Y-105.922
X360.265Y-104.648
X360.432Y-95.642
X360.5Y-112.25
X361.08Y-110.09
X361.1Y-112.97
X361.75Y-112.25
X362.311Y-46.374
X362.45Y-111.02
X363.15Y-70.97
X363.243Y-33.149
X363.25Y-111.82
X363.278Y-105.361
X363.282Y-106.45
X363.3Y-66.66
X363.65Y-55.34
X363.67Y-59.87
X363.685Y-102.895
X364.06Y-76.05
X364.162Y-103.832
X364.25Y-111.825
X364.342Y-108.495
X364.5Y-69.57
X364.54Y-51.65
X364.725Y-106.945
X364.75Y-105.295
X364.775Y-102.951
X365.336Y-85.205
X365.5Y-116.27
X365.63Y-74.635
X365.685Y-73.635
X365.77Y-55.34
X365.77Y-59.87
X366.13Y-95.4
X366.27Y-47.04
X366.31Y-140.98
X366.504Y-111.207
X366.663Y-104.197
X366.77Y-120.53
X366.83Y-84.15
X366.925Y-108.521
X366.95Y-116.241
X366.996Y-69.105
X367.13Y-94.24
X367.204Y-106.339
X367.35Y-102.892
X367.562Y-111.201
X368.028Y-108.496
X368.234Y-89.416
X368.294Y-63.215
X368.903Y-105.411
X369.4Y-51.7
X369.84Y-88.24
X370.0Y-122.42
X370.02Y-115.12
X370.05Y-114.22
X370.054Y-102.113
X370.17Y-64.45
X370.204Y-101.002
X370.57Y-90.96
X370.82Y-70.85
X370.83Y-76.07
X370.85Y-124.87
X370.86Y-86.48
X370.894Y-93.209
X370.9Y-83.85
X371.17Y-79.47
X371.214Y-102.162
X371.315Y-56.1
X371.343Y-138.612
X371.438Y-109.0
X371.612Y-104.414
X371.763Y-105.95
X372.898Y-99.2
X373.2Y-131.52
X373.35Y-106.1
X374.92Y-105.74
X375.86Y-133.42
T3
X64.73Y-31.25
X64.73Y-46.49
X64.73Y-50.3
X64.73Y-65.54
X64.73Y-69.35
X64.73Y-84.59
X64.73Y-88.4
X64.73Y-103.64
X64.73Y-107.45
X64.73Y-122.69
X64.73Y-126.5
X64.73Y-141.74
X67.27Y-31.25
X67.27Y-46.49
X67.27Y-50.3
X67.27Y-65.54
X67.27Y-69.35
X67.27Y-84.59
X67.27Y-88.4
X67.27Y-103.64
X67.27Y-107.45
X67.27Y-122.69
X67.27Y-126.5
X67.27Y-141.74
X69.81Y-31.25
X69.81Y-46.49
X69.81Y-50.3
X69.81Y-65.54
X69.81Y-69.35
X69.81Y-84.59
X69.81Y-88.4
X69.81Y-103.64
X69.81Y-107.45
X69.81Y-122.69
X69.81Y-126.5
X69.81Y-141.74
X72.35Y-31.25
X72.35Y-46.49
X72.35Y-50.3
X72.35Y-65.54
X72.35Y-69.35
X72.35Y-84.59
X72.35Y-88.4
X72.35Y-103.64
X72.35Y-107.45
X72.35Y-122.69
X72.35Y-126.5
X72.35Y-141.74
X74.89Y-31.25
X74.89Y-46.49
X74.89Y-50.3
X74.89Y-65.54
X74.89Y-69.35
X74.89Y-84.59
X74.89Y-88.4
X74.89Y-103.64
X74.89Y-107.45
X74.89Y-122.69
X74.89Y-126.5
X74.89Y-141.74
X77.43Y-31.25
X77.43Y-46.49
X77.43Y-50.3
X77.43Y-65.54
X77.43Y-69.35
X77.43Y-84.59
X77.43Y-88.4
X77.43Y-103.64
X77.43Y-107.45
X77.43Y-122.69
X77.43Y-126.5
X77.43Y-141.74
X115.18Y-31.25
X115.18Y-46.49
X115.18Y-50.3
X115.18Y-65.54
X115.18Y-69.35
X115.18Y-84.59
X115.18Y-88.4
X115.18Y-103.64
X115.18Y-107.45
X115.18Y-122.69
X115.18Y-126.5
X115.18Y-141.74
X117.72Y-31.25
X117.72Y-46.49
X117.72Y-50.3
X117.72Y-65.54
X117.72Y-69.35
X117.72Y-84.59
X117.72Y-88.4
X117.72Y-103.64
X117.72Y-107.45
X117.72Y-122.69
X117.72Y-126.5
X117.72Y-141.74
X120.26Y-31.25
X120.26Y-46.49
X120.26Y-50.3
X120.26Y-65.54
X120.26Y-69.35
X120.26Y-84.59
X120.26Y-88.4
X120.26Y-103.64
X120.26Y-107.45
X120.26Y-122.69
X120.26Y-126.5
X120.26Y-141.74
X122.8Y-31.25
X122.8Y-46.49
X122.8Y-50.3
X122.8Y-65.54
X122.8Y-69.35
X122.8Y-84.59
X122.8Y-88.4
X122.8Y-103.64
X122.8Y-107.45
X122.8Y-122.69
X122.8Y-126.5
X122.8Y-141.74
X125.34Y-31.25
X125.34Y-46.49
X125.34Y-50.3
X125.34Y-65.54
X125.34Y-69.35
X125.34Y-84.59
X125.34Y-88.4
X125.34Y-103.64
X125.34Y-107.45
X125.34Y-122.69
X125.34Y-126.5
X125.34Y-141.74
X127.88Y-31.25
X127.88Y-46.49
X127.88Y-50.3
X127.88Y-65.54
X127.88Y-69.35
X127.88Y-84.59
X127.88Y-88.4
X127.88Y-103.64
X127.88Y-107.45
X127.88Y-122.69
X127.88Y-126.5
X127.88Y-141.74
X165.63Y-31.25
X165.63Y-46.49
X165.63Y-50.3
X165.63Y-65.54
X165.63Y-69.35
X165.63Y-84.59
X165.63Y-88.4
X165.63Y-103.64
X165.63Y-107.45
X165.63Y-122.69
X165.63Y-126.5
X165.63Y-141.74
X168.17Y-31.25
X168.17Y-46.49
X168.17Y-50.3
X168.17Y-65.54
X168.17Y-69.35
X168.17Y-84.59
X168.17Y-88.4
X168.17Y-103.64
X168.17Y-107.45
X168.17Y-122.69
X168.17Y-126.5
X168.17Y-141.74
X170.71Y-31.25
X170.71Y-46.49
X170.71Y-50.3
X170.71Y-65.54
X170.71Y-69.35
X170.71Y-84.59
X170.71Y-88.4
X170.71Y-103.64
X170.71Y-107.45
X170.71Y-122.69
X170.71Y-126.5
X170.71Y-141.74
X173.25Y-31.25
X173.25Y-46.49
X173.25Y-50.3
X173.25Y-65.54
X173.25Y-69.35
X173.25Y-84.59
X173.25Y-88.4
X173.25Y-103.64
X173.25Y-107.45
X173.25Y-122.69
X173.25Y-126.5
X173.25Y-141.74
X175.79Y-31.25
X175.79Y-46.49
X175.79Y-50.3
X175.79Y-65.54
X175.79Y-69.35
X175.79Y-84.59
X175.79Y-88.4
X175.79Y-103.64
X175.79Y-107.45
X175.79Y-122.69
X175.79Y-126.5
X175.79Y-141.74
X178.33Y-31.25
X178.33Y-46.49
X178.33Y-50.3
X178.33Y-65.54
X178.33Y-69.35
X178.33Y-84.59
X178.33Y-88.4
X178.33Y-103.64
X178.33Y-107.45
X178.33Y-122.69
X178.33Y-126.5
X178.33Y-141.74
X216.08Y-31.25
X216.08Y-46.49
X216.08Y-50.3
X216.08Y-65.54
X216.08Y-69.35
X216.08Y-84.59
X216.08Y-88.4
X216.08Y-103.64
X216.08Y-107.45
X216.08Y-122.69
X216.08Y-126.5
X216.08Y-141.74
X218.62Y-31.25
X218.62Y-46.49
X218.62Y-50.3
X218.62Y-65.54
X218.62Y-69.35
X218.62Y-84.59
X218.62Y-88.4
X218.62Y-103.64
X218.62Y-107.45
X218.62Y-122.69
X218.62Y-126.5
X218.62Y-141.74
X221.16Y-31.25
X221.16Y-46.49
X221.16Y-50.3
X221.16Y-65.54
X221.16Y-69.35
X221.16Y-84.59
X221.16Y-88.4
X221.16Y-103.64
X221.16Y-107.45
X221.16Y-122.69
X221.16Y-126.5
X221.16Y-141.74
X223.7Y-31.25
X223.7Y-46.49
X223.7Y-50.3
X223.7Y-65.54
X223.7Y-69.35
X223.7Y-84.59
X223.7Y-88.4
X223.7Y-103.64
X223.7Y-107.45
X223.7Y-122.69
X223.7Y-126.5
X223.7Y-141.74
X226.24Y-31.25
X226.24Y-46.49
X226.24Y-50.3
X226.24Y-65.54
X226.24Y-69.35
X226.24Y-84.59
X226.24Y-88.4
X226.24Y-103.64
X226.24Y-107.45
X226.24Y-122.69
X226.24Y-126.5
X226.24Y-141.74
X228.78Y-31.25
X228.78Y-46.49
X228.78Y-50.3
X228.78Y-65.54
X228.78Y-69.35
X228.78Y-84.59
X228.78Y-88.4
X228.78Y-103.64
X228.78Y-107.45
X228.78Y-122.69
X228.78Y-126.5
X228.78Y-141.74
X266.53Y-31.25
X266.53Y-46.49
X266.53Y-50.3
X266.53Y-65.54
X266.53Y-69.35
X266.53Y-84.59
X266.53Y-88.4
X266.53Y-103.64
X266.53Y-107.45
X266.53Y-122.69
X266.53Y-126.5
X266.53Y-141.74
X269.07Y-31.25
X269.07Y-46.49
X269.07Y-50.3
X269.07Y-65.54
X269.07Y-69.35
X269.07Y-84.59
X269.07Y-88.4
X269.07Y-103.64
X269.07Y-107.45
X269.07Y-122.69
X269.07Y-126.5
X269.07Y-141.74
X271.61Y-31.25
X271.61Y-46.49
X271.61Y-50.3
X271.61Y-65.54
X271.61Y-69.35
X271.61Y-84.59
X271.61Y-88.4
X271.61Y-103.64
X271.61Y-107.45
X271.61Y-122.69
X271.61Y-126.5
X271.61Y-141.74
X274.15Y-31.25
X274.15Y-46.49
X274.15Y-50.3
X274.15Y-65.54
X274.15Y-69.35
X274.15Y-84.59
X274.15Y-88.4
X274.15Y-103.64
X274.15Y-107.45
X274.15Y-122.69
X274.15Y-126.5
X274.15Y-141.74
X276.69Y-31.25
X276.69Y-46.49
X276.69Y-50.3
X276.69Y-65.54
X276.69Y-69.35
X276.69Y-84.59
X276.69Y-88.4
X276.69Y-103.64
X276.69Y-107.45
X276.69Y-122.69
X276.69Y-126.5
X276.69Y-141.74
X279.23Y-31.25
X279.23Y-46.49
X279.23Y-50.3
X279.23Y-65.54
X279.23Y-69.35
X279.23Y-84.59
X279.23Y-88.4
X279.23Y-103.64
X279.23Y-107.45
X279.23Y-122.69
X279.23Y-126.5
X279.23Y-141.74
X316.98Y-31.25
X316.98Y-46.49
X316.98Y-50.3
X316.98Y-65.54
X316.98Y-69.35
X316.98Y-84.59
X316.98Y-88.4
X316.98Y-103.64
X316.98Y-107.45
X316.98Y-122.69
X316.98Y-126.5
X316.98Y-141.74
X319.52Y-31.25
X319.52Y-46.49
X319.52Y-50.3
X319.52Y-65.54
X319.52Y-69.35
X319.52Y-84.59
X319.52Y-88.4
X319.52Y-103.64
X319.52Y-107.45
X319.52Y-122.69
X319.52Y-126.5
X319.52Y-141.74
X322.06Y-31.25
X322.06Y-46.49
X322.06Y-50.3
X322.06Y-65.54
X322.06Y-69.35
X322.06Y-84.59
X322.06Y-88.4
X322.06Y-103.64
X322.06Y-107.45
X322.06Y-122.69
X322.06Y-126.5
X322.06Y-141.74
X324.6Y-31.25
X324.6Y-46.49
X324.6Y-50.3
X324.6Y-65.54
X324.6Y-69.35
X324.6Y-84.59
X324.6Y-88.4
X324.6Y-103.64
X324.6Y-107.45
X324.6Y-122.69
X324.6Y-126.5
X324.6Y-141.74
X327.14Y-31.25
X327.14Y-46.49
X327.14Y-50.3
X327.14Y-65.54
X327.14Y-69.35
X327.14Y-84.59
X327.14Y-88.4
X327.14Y-103.64
X327.14Y-107.45
X327.14Y-122.69
X327.14Y-126.5
X327.14Y-141.74
X329.68Y-31.25
X329.68Y-46.49
X329.68Y-50.3
X329.68Y-65.54
X329.68Y-69.35
X329.68Y-84.59
X329.68Y-88.4
X329.68Y-103.64
X329.68Y-107.45
X329.68Y-122.69
X329.68Y-126.5
X329.68Y-141.74
T4
X353.55Y-60.43
X358.55Y-60.43
T5
X373.8Y-38.7
X373.8Y-41.24
X373.8Y-43.78
X373.8Y-46.32
X373.8Y-84.45
X373.8Y-86.99
X373.8Y-109.0
X373.8Y-111.54
X373.8Y-114.08
X373.8Y-118.7
X373.8Y-121.24
X373.8Y-123.78
X373.8Y-126.32
X373.8Y-128.86
T6
X356.05Y-56.68
X356.05Y-64.18
T7
X27.2Y-39.0
X27.2Y-134.0
X197.2Y-39.0
X197.2Y-77.0
X197.2Y-96.0
X197.2Y-134.0
X367.2Y-39.0
X367.2Y-134.0
T8
X352.61Y-137.4
X358.39Y-137.4
T2
G00X351.18Y-136.32
M15
G01X351.18Y-137.42
M16
G05
G00X351.18Y-140.75
M15
G01X351.18Y-141.35
M16
G05
G00X359.82Y-136.32
M15
G01X359.82Y-137.42
M16
G05
G00X359.82Y-140.75
M15
G01X359.82Y-141.35
M16
G05
T0
M30
