%TF.GenerationSoftware,KiCad,Pcbnew,5.1.12-84ad8e8a86~92~ubuntu20.04.1*%
%TF.CreationDate,2022-07-11T23:01:20-05:00*%
%TF.ProjectId,kilosegment_clock,6b696c6f-7365-4676-9d65-6e745f636c6f,rev?*%
%TF.SameCoordinates,Original*%
%TF.FileFunction,Paste,Top*%
%TF.FilePolarity,Positive*%
%FSLAX46Y46*%
G04 Gerber Fmt 4.6, Leading zero omitted, Abs format (unit mm)*
G04 Created by KiCad (PCBNEW 5.1.12-84ad8e8a86~92~ubuntu20.04.1) date 2022-07-11 23:01:20*
%MOMM*%
%LPD*%
G01*
G04 APERTURE LIST*
%ADD10C,1.550000*%
%ADD11O,0.590000X2.360000*%
%ADD12O,2.360000X0.590000*%
%ADD13R,0.600000X1.450000*%
%ADD14R,0.300000X1.450000*%
%ADD15R,1.200000X0.900000*%
%ADD16R,3.500000X2.400000*%
%ADD17R,1.800000X1.000000*%
%ADD18R,1.500000X0.400000*%
%ADD19C,0.150000*%
%ADD20R,1.300000X0.900000*%
%ADD21R,1.700000X1.000000*%
%ADD22R,0.800000X1.900000*%
%ADD23C,1.600000*%
G04 APERTURE END LIST*
D10*
%TO.C,D38*%
X324600000Y-141740000D03*
X322060000Y-141740000D03*
X319520000Y-141740000D03*
X327140000Y-141740000D03*
X316980000Y-141740000D03*
X329680000Y-141740000D03*
X316980000Y-126500000D03*
X329680000Y-126500000D03*
X327140000Y-126500000D03*
X324600000Y-126500000D03*
X319520000Y-126500000D03*
X322060000Y-126500000D03*
%TD*%
%TO.C,D37*%
X274150000Y-141740000D03*
X271610000Y-141740000D03*
X269070000Y-141740000D03*
X276690000Y-141740000D03*
X266530000Y-141740000D03*
X279230000Y-141740000D03*
X266530000Y-126500000D03*
X279230000Y-126500000D03*
X276690000Y-126500000D03*
X274150000Y-126500000D03*
X269070000Y-126500000D03*
X271610000Y-126500000D03*
%TD*%
%TO.C,D36*%
X324600000Y-122690000D03*
X322060000Y-122690000D03*
X319520000Y-122690000D03*
X327140000Y-122690000D03*
X316980000Y-122690000D03*
X329680000Y-122690000D03*
X316980000Y-107450000D03*
X329680000Y-107450000D03*
X327140000Y-107450000D03*
X324600000Y-107450000D03*
X319520000Y-107450000D03*
X322060000Y-107450000D03*
%TD*%
%TO.C,D35*%
X274150000Y-122690000D03*
X271610000Y-122690000D03*
X269070000Y-122690000D03*
X276690000Y-122690000D03*
X266530000Y-122690000D03*
X279230000Y-122690000D03*
X266530000Y-107450000D03*
X279230000Y-107450000D03*
X276690000Y-107450000D03*
X274150000Y-107450000D03*
X269070000Y-107450000D03*
X271610000Y-107450000D03*
%TD*%
%TO.C,D34*%
X324600000Y-103640000D03*
X322060000Y-103640000D03*
X319520000Y-103640000D03*
X327140000Y-103640000D03*
X316980000Y-103640000D03*
X329680000Y-103640000D03*
X316980000Y-88400000D03*
X329680000Y-88400000D03*
X327140000Y-88400000D03*
X324600000Y-88400000D03*
X319520000Y-88400000D03*
X322060000Y-88400000D03*
%TD*%
%TO.C,D33*%
X274150000Y-103640000D03*
X271610000Y-103640000D03*
X269070000Y-103640000D03*
X276690000Y-103640000D03*
X266530000Y-103640000D03*
X279230000Y-103640000D03*
X266530000Y-88400000D03*
X279230000Y-88400000D03*
X276690000Y-88400000D03*
X274150000Y-88400000D03*
X269070000Y-88400000D03*
X271610000Y-88400000D03*
%TD*%
%TO.C,D32*%
X324600000Y-84590000D03*
X322060000Y-84590000D03*
X319520000Y-84590000D03*
X327140000Y-84590000D03*
X316980000Y-84590000D03*
X329680000Y-84590000D03*
X316980000Y-69350000D03*
X329680000Y-69350000D03*
X327140000Y-69350000D03*
X324600000Y-69350000D03*
X319520000Y-69350000D03*
X322060000Y-69350000D03*
%TD*%
%TO.C,D31*%
X274150000Y-84590000D03*
X271610000Y-84590000D03*
X269070000Y-84590000D03*
X276690000Y-84590000D03*
X266530000Y-84590000D03*
X279230000Y-84590000D03*
X266530000Y-69350000D03*
X279230000Y-69350000D03*
X276690000Y-69350000D03*
X274150000Y-69350000D03*
X269070000Y-69350000D03*
X271610000Y-69350000D03*
%TD*%
%TO.C,D30*%
X324600000Y-65540000D03*
X322060000Y-65540000D03*
X319520000Y-65540000D03*
X327140000Y-65540000D03*
X316980000Y-65540000D03*
X329680000Y-65540000D03*
X316980000Y-50300000D03*
X329680000Y-50300000D03*
X327140000Y-50300000D03*
X324600000Y-50300000D03*
X319520000Y-50300000D03*
X322060000Y-50300000D03*
%TD*%
%TO.C,D29*%
X274150000Y-65540000D03*
X271610000Y-65540000D03*
X269070000Y-65540000D03*
X276690000Y-65540000D03*
X266530000Y-65540000D03*
X279230000Y-65540000D03*
X266530000Y-50300000D03*
X279230000Y-50300000D03*
X276690000Y-50300000D03*
X274150000Y-50300000D03*
X269070000Y-50300000D03*
X271610000Y-50300000D03*
%TD*%
%TO.C,D28*%
X324600000Y-46490000D03*
X322060000Y-46490000D03*
X319520000Y-46490000D03*
X327140000Y-46490000D03*
X316980000Y-46490000D03*
X329680000Y-46490000D03*
X316980000Y-31250000D03*
X329680000Y-31250000D03*
X327140000Y-31250000D03*
X324600000Y-31250000D03*
X319520000Y-31250000D03*
X322060000Y-31250000D03*
%TD*%
%TO.C,D27*%
X274150000Y-46490000D03*
X271610000Y-46490000D03*
X269070000Y-46490000D03*
X276690000Y-46490000D03*
X266530000Y-46490000D03*
X279230000Y-46490000D03*
X266530000Y-31250000D03*
X279230000Y-31250000D03*
X276690000Y-31250000D03*
X274150000Y-31250000D03*
X269070000Y-31250000D03*
X271610000Y-31250000D03*
%TD*%
%TO.C,D26*%
X223700000Y-141740000D03*
X221160000Y-141740000D03*
X218620000Y-141740000D03*
X226240000Y-141740000D03*
X216080000Y-141740000D03*
X228780000Y-141740000D03*
X216080000Y-126500000D03*
X228780000Y-126500000D03*
X226240000Y-126500000D03*
X223700000Y-126500000D03*
X218620000Y-126500000D03*
X221160000Y-126500000D03*
%TD*%
%TO.C,D25*%
X173250000Y-141740000D03*
X170710000Y-141740000D03*
X168170000Y-141740000D03*
X175790000Y-141740000D03*
X165630000Y-141740000D03*
X178330000Y-141740000D03*
X165630000Y-126500000D03*
X178330000Y-126500000D03*
X175790000Y-126500000D03*
X173250000Y-126500000D03*
X168170000Y-126500000D03*
X170710000Y-126500000D03*
%TD*%
%TO.C,D24*%
X122800000Y-141740000D03*
X120260000Y-141740000D03*
X117720000Y-141740000D03*
X125340000Y-141740000D03*
X115180000Y-141740000D03*
X127880000Y-141740000D03*
X115180000Y-126500000D03*
X127880000Y-126500000D03*
X125340000Y-126500000D03*
X122800000Y-126500000D03*
X117720000Y-126500000D03*
X120260000Y-126500000D03*
%TD*%
%TO.C,D23*%
X72350000Y-141740000D03*
X69810000Y-141740000D03*
X67270000Y-141740000D03*
X74890000Y-141740000D03*
X64730000Y-141740000D03*
X77430000Y-141740000D03*
X64730000Y-126500000D03*
X77430000Y-126500000D03*
X74890000Y-126500000D03*
X72350000Y-126500000D03*
X67270000Y-126500000D03*
X69810000Y-126500000D03*
%TD*%
%TO.C,D22*%
X223700000Y-122690000D03*
X221160000Y-122690000D03*
X218620000Y-122690000D03*
X226240000Y-122690000D03*
X216080000Y-122690000D03*
X228780000Y-122690000D03*
X216080000Y-107450000D03*
X228780000Y-107450000D03*
X226240000Y-107450000D03*
X223700000Y-107450000D03*
X218620000Y-107450000D03*
X221160000Y-107450000D03*
%TD*%
%TO.C,D21*%
X173250000Y-122690000D03*
X170710000Y-122690000D03*
X168170000Y-122690000D03*
X175790000Y-122690000D03*
X165630000Y-122690000D03*
X178330000Y-122690000D03*
X165630000Y-107450000D03*
X178330000Y-107450000D03*
X175790000Y-107450000D03*
X173250000Y-107450000D03*
X168170000Y-107450000D03*
X170710000Y-107450000D03*
%TD*%
%TO.C,D20*%
X122800000Y-122690000D03*
X120260000Y-122690000D03*
X117720000Y-122690000D03*
X125340000Y-122690000D03*
X115180000Y-122690000D03*
X127880000Y-122690000D03*
X115180000Y-107450000D03*
X127880000Y-107450000D03*
X125340000Y-107450000D03*
X122800000Y-107450000D03*
X117720000Y-107450000D03*
X120260000Y-107450000D03*
%TD*%
%TO.C,D19*%
X72350000Y-122690000D03*
X69810000Y-122690000D03*
X67270000Y-122690000D03*
X74890000Y-122690000D03*
X64730000Y-122690000D03*
X77430000Y-122690000D03*
X64730000Y-107450000D03*
X77430000Y-107450000D03*
X74890000Y-107450000D03*
X72350000Y-107450000D03*
X67270000Y-107450000D03*
X69810000Y-107450000D03*
%TD*%
%TO.C,D18*%
X223700000Y-103640000D03*
X221160000Y-103640000D03*
X218620000Y-103640000D03*
X226240000Y-103640000D03*
X216080000Y-103640000D03*
X228780000Y-103640000D03*
X216080000Y-88400000D03*
X228780000Y-88400000D03*
X226240000Y-88400000D03*
X223700000Y-88400000D03*
X218620000Y-88400000D03*
X221160000Y-88400000D03*
%TD*%
%TO.C,D17*%
X173250000Y-103640000D03*
X170710000Y-103640000D03*
X168170000Y-103640000D03*
X175790000Y-103640000D03*
X165630000Y-103640000D03*
X178330000Y-103640000D03*
X165630000Y-88400000D03*
X178330000Y-88400000D03*
X175790000Y-88400000D03*
X173250000Y-88400000D03*
X168170000Y-88400000D03*
X170710000Y-88400000D03*
%TD*%
%TO.C,D16*%
X122800000Y-103640000D03*
X120260000Y-103640000D03*
X117720000Y-103640000D03*
X125340000Y-103640000D03*
X115180000Y-103640000D03*
X127880000Y-103640000D03*
X115180000Y-88400000D03*
X127880000Y-88400000D03*
X125340000Y-88400000D03*
X122800000Y-88400000D03*
X117720000Y-88400000D03*
X120260000Y-88400000D03*
%TD*%
%TO.C,D15*%
X72350000Y-103640000D03*
X69810000Y-103640000D03*
X67270000Y-103640000D03*
X74890000Y-103640000D03*
X64730000Y-103640000D03*
X77430000Y-103640000D03*
X64730000Y-88400000D03*
X77430000Y-88400000D03*
X74890000Y-88400000D03*
X72350000Y-88400000D03*
X67270000Y-88400000D03*
X69810000Y-88400000D03*
%TD*%
%TO.C,D14*%
X223700000Y-84590000D03*
X221160000Y-84590000D03*
X218620000Y-84590000D03*
X226240000Y-84590000D03*
X216080000Y-84590000D03*
X228780000Y-84590000D03*
X216080000Y-69350000D03*
X228780000Y-69350000D03*
X226240000Y-69350000D03*
X223700000Y-69350000D03*
X218620000Y-69350000D03*
X221160000Y-69350000D03*
%TD*%
%TO.C,D13*%
X173250000Y-84590000D03*
X170710000Y-84590000D03*
X168170000Y-84590000D03*
X175790000Y-84590000D03*
X165630000Y-84590000D03*
X178330000Y-84590000D03*
X165630000Y-69350000D03*
X178330000Y-69350000D03*
X175790000Y-69350000D03*
X173250000Y-69350000D03*
X168170000Y-69350000D03*
X170710000Y-69350000D03*
%TD*%
%TO.C,D12*%
X122800000Y-84590000D03*
X120260000Y-84590000D03*
X117720000Y-84590000D03*
X125340000Y-84590000D03*
X115180000Y-84590000D03*
X127880000Y-84590000D03*
X115180000Y-69350000D03*
X127880000Y-69350000D03*
X125340000Y-69350000D03*
X122800000Y-69350000D03*
X117720000Y-69350000D03*
X120260000Y-69350000D03*
%TD*%
%TO.C,D11*%
X72350000Y-84590000D03*
X69810000Y-84590000D03*
X67270000Y-84590000D03*
X74890000Y-84590000D03*
X64730000Y-84590000D03*
X77430000Y-84590000D03*
X64730000Y-69350000D03*
X77430000Y-69350000D03*
X74890000Y-69350000D03*
X72350000Y-69350000D03*
X67270000Y-69350000D03*
X69810000Y-69350000D03*
%TD*%
%TO.C,D10*%
X223700000Y-65540000D03*
X221160000Y-65540000D03*
X218620000Y-65540000D03*
X226240000Y-65540000D03*
X216080000Y-65540000D03*
X228780000Y-65540000D03*
X216080000Y-50300000D03*
X228780000Y-50300000D03*
X226240000Y-50300000D03*
X223700000Y-50300000D03*
X218620000Y-50300000D03*
X221160000Y-50300000D03*
%TD*%
%TO.C,D9*%
X173250000Y-65540000D03*
X170710000Y-65540000D03*
X168170000Y-65540000D03*
X175790000Y-65540000D03*
X165630000Y-65540000D03*
X178330000Y-65540000D03*
X165630000Y-50300000D03*
X178330000Y-50300000D03*
X175790000Y-50300000D03*
X173250000Y-50300000D03*
X168170000Y-50300000D03*
X170710000Y-50300000D03*
%TD*%
%TO.C,D8*%
X122800000Y-65540000D03*
X120260000Y-65540000D03*
X117720000Y-65540000D03*
X125340000Y-65540000D03*
X115180000Y-65540000D03*
X127880000Y-65540000D03*
X115180000Y-50300000D03*
X127880000Y-50300000D03*
X125340000Y-50300000D03*
X122800000Y-50300000D03*
X117720000Y-50300000D03*
X120260000Y-50300000D03*
%TD*%
%TO.C,D7*%
X72350000Y-65540000D03*
X69810000Y-65540000D03*
X67270000Y-65540000D03*
X74890000Y-65540000D03*
X64730000Y-65540000D03*
X77430000Y-65540000D03*
X64730000Y-50300000D03*
X77430000Y-50300000D03*
X74890000Y-50300000D03*
X72350000Y-50300000D03*
X67270000Y-50300000D03*
X69810000Y-50300000D03*
%TD*%
%TO.C,D6*%
X223700000Y-46490000D03*
X221160000Y-46490000D03*
X218620000Y-46490000D03*
X226240000Y-46490000D03*
X216080000Y-46490000D03*
X228780000Y-46490000D03*
X216080000Y-31250000D03*
X228780000Y-31250000D03*
X226240000Y-31250000D03*
X223700000Y-31250000D03*
X218620000Y-31250000D03*
X221160000Y-31250000D03*
%TD*%
%TO.C,D5*%
X173250000Y-46490000D03*
X170710000Y-46490000D03*
X168170000Y-46490000D03*
X175790000Y-46490000D03*
X165630000Y-46490000D03*
X178330000Y-46490000D03*
X165630000Y-31250000D03*
X178330000Y-31250000D03*
X175790000Y-31250000D03*
X173250000Y-31250000D03*
X168170000Y-31250000D03*
X170710000Y-31250000D03*
%TD*%
%TO.C,D4*%
X122800000Y-46490000D03*
X120260000Y-46490000D03*
X117720000Y-46490000D03*
X125340000Y-46490000D03*
X115180000Y-46490000D03*
X127880000Y-46490000D03*
X115180000Y-31250000D03*
X127880000Y-31250000D03*
X125340000Y-31250000D03*
X122800000Y-31250000D03*
X117720000Y-31250000D03*
X120260000Y-31250000D03*
%TD*%
%TO.C,D3*%
X72350000Y-46490000D03*
X69810000Y-46490000D03*
X67270000Y-46490000D03*
X74890000Y-46490000D03*
X64730000Y-46490000D03*
X77430000Y-46490000D03*
X64730000Y-31250000D03*
X77430000Y-31250000D03*
X74890000Y-31250000D03*
X72350000Y-31250000D03*
X67270000Y-31250000D03*
X69810000Y-31250000D03*
%TD*%
D11*
%TO.C,U8*%
X370020000Y-118470000D03*
X368750000Y-118470000D03*
X367480000Y-118470000D03*
X366210000Y-118470000D03*
X364940000Y-118470000D03*
X363670000Y-118470000D03*
X362400000Y-118470000D03*
X361130000Y-118470000D03*
X359860000Y-118470000D03*
X358590000Y-118470000D03*
X357320000Y-118470000D03*
X356050000Y-118470000D03*
X354780000Y-118470000D03*
X353510000Y-118470000D03*
X352240000Y-118470000D03*
X350970000Y-118470000D03*
X370020000Y-127930000D03*
X368750000Y-127930000D03*
X367480000Y-127930000D03*
X366210000Y-127930000D03*
X364940000Y-127930000D03*
X363670000Y-127930000D03*
X362400000Y-127930000D03*
X361130000Y-127930000D03*
X359860000Y-127930000D03*
X358590000Y-127930000D03*
X357320000Y-127930000D03*
X356050000Y-127930000D03*
X354780000Y-127930000D03*
X353510000Y-127930000D03*
X352240000Y-127930000D03*
X350970000Y-127930000D03*
%TD*%
%TO.C,U7*%
X369620000Y-81770000D03*
X368350000Y-81770000D03*
X367080000Y-81770000D03*
X365810000Y-81770000D03*
X364540000Y-81770000D03*
X363270000Y-81770000D03*
X362000000Y-81770000D03*
X360730000Y-81770000D03*
X359460000Y-81770000D03*
X358190000Y-81770000D03*
X356920000Y-81770000D03*
X355650000Y-81770000D03*
X354380000Y-81770000D03*
X353110000Y-81770000D03*
X351840000Y-81770000D03*
X350570000Y-81770000D03*
X369620000Y-91230000D03*
X368350000Y-91230000D03*
X367080000Y-91230000D03*
X365810000Y-91230000D03*
X364540000Y-91230000D03*
X363270000Y-91230000D03*
X362000000Y-91230000D03*
X360730000Y-91230000D03*
X359460000Y-91230000D03*
X358190000Y-91230000D03*
X356920000Y-91230000D03*
X355650000Y-91230000D03*
X354380000Y-91230000D03*
X353110000Y-91230000D03*
X351840000Y-91230000D03*
X350570000Y-91230000D03*
%TD*%
D12*
%TO.C,U6*%
X351070000Y-33680000D03*
X351070000Y-34950000D03*
X351070000Y-36220000D03*
X351070000Y-37490000D03*
X351070000Y-38760000D03*
X351070000Y-40030000D03*
X351070000Y-41300000D03*
X351070000Y-42570000D03*
X351070000Y-43840000D03*
X351070000Y-45110000D03*
X351070000Y-46380000D03*
X351070000Y-47650000D03*
X351070000Y-48920000D03*
X351070000Y-50190000D03*
X351070000Y-51460000D03*
X351070000Y-52730000D03*
X360530000Y-33680000D03*
X360530000Y-34950000D03*
X360530000Y-36220000D03*
X360530000Y-37490000D03*
X360530000Y-38760000D03*
X360530000Y-40030000D03*
X360530000Y-41300000D03*
X360530000Y-42570000D03*
X360530000Y-43840000D03*
X360530000Y-45110000D03*
X360530000Y-46380000D03*
X360530000Y-47650000D03*
X360530000Y-48920000D03*
X360530000Y-50190000D03*
X360530000Y-51460000D03*
X360530000Y-52730000D03*
%TD*%
%TO.C,U5*%
G36*
G01*
X42594018Y-123665153D02*
X43285612Y-122035859D01*
G75*
G02*
X43672427Y-121879576I271549J-115266D01*
G01*
X43672427Y-121879576D01*
G75*
G02*
X43828710Y-122266391I-115266J-271549D01*
G01*
X43137116Y-123895685D01*
G75*
G02*
X42750301Y-124051968I-271549J115266D01*
G01*
X42750301Y-124051968D01*
G75*
G02*
X42594018Y-123665153I115266J271549D01*
G01*
G37*
G36*
G01*
X41424977Y-123168925D02*
X42116571Y-121539631D01*
G75*
G02*
X42503386Y-121383348I271549J-115266D01*
G01*
X42503386Y-121383348D01*
G75*
G02*
X42659669Y-121770163I-115266J-271549D01*
G01*
X41968075Y-123399457D01*
G75*
G02*
X41581260Y-123555740I-271549J115266D01*
G01*
X41581260Y-123555740D01*
G75*
G02*
X41424977Y-123168925I115266J271549D01*
G01*
G37*
G36*
G01*
X40255936Y-122672696D02*
X40947530Y-121043402D01*
G75*
G02*
X41334345Y-120887119I271549J-115266D01*
G01*
X41334345Y-120887119D01*
G75*
G02*
X41490628Y-121273934I-115266J-271549D01*
G01*
X40799034Y-122903228D01*
G75*
G02*
X40412219Y-123059511I-271549J115266D01*
G01*
X40412219Y-123059511D01*
G75*
G02*
X40255936Y-122672696I115266J271549D01*
G01*
G37*
G36*
G01*
X39086895Y-122176468D02*
X39778489Y-120547174D01*
G75*
G02*
X40165304Y-120390891I271549J-115266D01*
G01*
X40165304Y-120390891D01*
G75*
G02*
X40321587Y-120777706I-115266J-271549D01*
G01*
X39629993Y-122407000D01*
G75*
G02*
X39243178Y-122563283I-271549J115266D01*
G01*
X39243178Y-122563283D01*
G75*
G02*
X39086895Y-122176468I115266J271549D01*
G01*
G37*
G36*
G01*
X37917854Y-121680239D02*
X38609448Y-120050945D01*
G75*
G02*
X38996263Y-119894662I271549J-115266D01*
G01*
X38996263Y-119894662D01*
G75*
G02*
X39152546Y-120281477I-115266J-271549D01*
G01*
X38460952Y-121910771D01*
G75*
G02*
X38074137Y-122067054I-271549J115266D01*
G01*
X38074137Y-122067054D01*
G75*
G02*
X37917854Y-121680239I115266J271549D01*
G01*
G37*
G36*
G01*
X36748813Y-121184011D02*
X37440407Y-119554717D01*
G75*
G02*
X37827222Y-119398434I271549J-115266D01*
G01*
X37827222Y-119398434D01*
G75*
G02*
X37983505Y-119785249I-115266J-271549D01*
G01*
X37291911Y-121414543D01*
G75*
G02*
X36905096Y-121570826I-271549J115266D01*
G01*
X36905096Y-121570826D01*
G75*
G02*
X36748813Y-121184011I115266J271549D01*
G01*
G37*
G36*
G01*
X35579771Y-120687782D02*
X36271365Y-119058488D01*
G75*
G02*
X36658180Y-118902205I271549J-115266D01*
G01*
X36658180Y-118902205D01*
G75*
G02*
X36814463Y-119289020I-115266J-271549D01*
G01*
X36122869Y-120918314D01*
G75*
G02*
X35736054Y-121074597I-271549J115266D01*
G01*
X35736054Y-121074597D01*
G75*
G02*
X35579771Y-120687782I115266J271549D01*
G01*
G37*
G36*
G01*
X34410730Y-120191554D02*
X35102324Y-118562260D01*
G75*
G02*
X35489139Y-118405977I271549J-115266D01*
G01*
X35489139Y-118405977D01*
G75*
G02*
X35645422Y-118792792I-115266J-271549D01*
G01*
X34953828Y-120422086D01*
G75*
G02*
X34567013Y-120578369I-271549J115266D01*
G01*
X34567013Y-120578369D01*
G75*
G02*
X34410730Y-120191554I115266J271549D01*
G01*
G37*
G36*
G01*
X33241689Y-119695325D02*
X33933283Y-118066031D01*
G75*
G02*
X34320098Y-117909748I271549J-115266D01*
G01*
X34320098Y-117909748D01*
G75*
G02*
X34476381Y-118296563I-115266J-271549D01*
G01*
X33784787Y-119925857D01*
G75*
G02*
X33397972Y-120082140I-271549J115266D01*
G01*
X33397972Y-120082140D01*
G75*
G02*
X33241689Y-119695325I115266J271549D01*
G01*
G37*
G36*
G01*
X32072648Y-119199097D02*
X32764242Y-117569803D01*
G75*
G02*
X33151057Y-117413520I271549J-115266D01*
G01*
X33151057Y-117413520D01*
G75*
G02*
X33307340Y-117800335I-115266J-271549D01*
G01*
X32615746Y-119429629D01*
G75*
G02*
X32228931Y-119585912I-271549J115266D01*
G01*
X32228931Y-119585912D01*
G75*
G02*
X32072648Y-119199097I115266J271549D01*
G01*
G37*
G36*
G01*
X30903607Y-118702868D02*
X31595201Y-117073574D01*
G75*
G02*
X31982016Y-116917291I271549J-115266D01*
G01*
X31982016Y-116917291D01*
G75*
G02*
X32138299Y-117304106I-115266J-271549D01*
G01*
X31446705Y-118933400D01*
G75*
G02*
X31059890Y-119089683I-271549J115266D01*
G01*
X31059890Y-119089683D01*
G75*
G02*
X30903607Y-118702868I115266J271549D01*
G01*
G37*
G36*
G01*
X29734566Y-118206640D02*
X30426160Y-116577346D01*
G75*
G02*
X30812975Y-116421063I271549J-115266D01*
G01*
X30812975Y-116421063D01*
G75*
G02*
X30969258Y-116807878I-115266J-271549D01*
G01*
X30277664Y-118437172D01*
G75*
G02*
X29890849Y-118593455I-271549J115266D01*
G01*
X29890849Y-118593455D01*
G75*
G02*
X29734566Y-118206640I115266J271549D01*
G01*
G37*
G36*
G01*
X28565524Y-117710411D02*
X29257118Y-116081117D01*
G75*
G02*
X29643933Y-115924834I271549J-115266D01*
G01*
X29643933Y-115924834D01*
G75*
G02*
X29800216Y-116311649I-115266J-271549D01*
G01*
X29108622Y-117940943D01*
G75*
G02*
X28721807Y-118097226I-271549J115266D01*
G01*
X28721807Y-118097226D01*
G75*
G02*
X28565524Y-117710411I115266J271549D01*
G01*
G37*
G36*
G01*
X27396483Y-117214182D02*
X28088077Y-115584888D01*
G75*
G02*
X28474892Y-115428605I271549J-115266D01*
G01*
X28474892Y-115428605D01*
G75*
G02*
X28631175Y-115815420I-115266J-271549D01*
G01*
X27939581Y-117444714D01*
G75*
G02*
X27552766Y-117600997I-271549J115266D01*
G01*
X27552766Y-117600997D01*
G75*
G02*
X27396483Y-117214182I115266J271549D01*
G01*
G37*
G36*
G01*
X26227442Y-116717954D02*
X26919036Y-115088660D01*
G75*
G02*
X27305851Y-114932377I271549J-115266D01*
G01*
X27305851Y-114932377D01*
G75*
G02*
X27462134Y-115319192I-115266J-271549D01*
G01*
X26770540Y-116948486D01*
G75*
G02*
X26383725Y-117104769I-271549J115266D01*
G01*
X26383725Y-117104769D01*
G75*
G02*
X26227442Y-116717954I115266J271549D01*
G01*
G37*
G36*
G01*
X25058401Y-116221725D02*
X25749995Y-114592431D01*
G75*
G02*
X26136810Y-114436148I271549J-115266D01*
G01*
X26136810Y-114436148D01*
G75*
G02*
X26293093Y-114822963I-115266J-271549D01*
G01*
X25601499Y-116452257D01*
G75*
G02*
X25214684Y-116608540I-271549J115266D01*
G01*
X25214684Y-116608540D01*
G75*
G02*
X25058401Y-116221725I115266J271549D01*
G01*
G37*
G36*
G01*
X38897702Y-132373129D02*
X39589296Y-130743835D01*
G75*
G02*
X39976111Y-130587552I271549J-115266D01*
G01*
X39976111Y-130587552D01*
G75*
G02*
X40132394Y-130974367I-115266J-271549D01*
G01*
X39440800Y-132603661D01*
G75*
G02*
X39053985Y-132759944I-271549J115266D01*
G01*
X39053985Y-132759944D01*
G75*
G02*
X38897702Y-132373129I115266J271549D01*
G01*
G37*
G36*
G01*
X37728661Y-131876901D02*
X38420255Y-130247607D01*
G75*
G02*
X38807070Y-130091324I271549J-115266D01*
G01*
X38807070Y-130091324D01*
G75*
G02*
X38963353Y-130478139I-115266J-271549D01*
G01*
X38271759Y-132107433D01*
G75*
G02*
X37884944Y-132263716I-271549J115266D01*
G01*
X37884944Y-132263716D01*
G75*
G02*
X37728661Y-131876901I115266J271549D01*
G01*
G37*
G36*
G01*
X36559620Y-131380672D02*
X37251214Y-129751378D01*
G75*
G02*
X37638029Y-129595095I271549J-115266D01*
G01*
X37638029Y-129595095D01*
G75*
G02*
X37794312Y-129981910I-115266J-271549D01*
G01*
X37102718Y-131611204D01*
G75*
G02*
X36715903Y-131767487I-271549J115266D01*
G01*
X36715903Y-131767487D01*
G75*
G02*
X36559620Y-131380672I115266J271549D01*
G01*
G37*
G36*
G01*
X35390578Y-130884444D02*
X36082172Y-129255150D01*
G75*
G02*
X36468987Y-129098867I271549J-115266D01*
G01*
X36468987Y-129098867D01*
G75*
G02*
X36625270Y-129485682I-115266J-271549D01*
G01*
X35933676Y-131114976D01*
G75*
G02*
X35546861Y-131271259I-271549J115266D01*
G01*
X35546861Y-131271259D01*
G75*
G02*
X35390578Y-130884444I115266J271549D01*
G01*
G37*
G36*
G01*
X34221537Y-130388215D02*
X34913131Y-128758921D01*
G75*
G02*
X35299946Y-128602638I271549J-115266D01*
G01*
X35299946Y-128602638D01*
G75*
G02*
X35456229Y-128989453I-115266J-271549D01*
G01*
X34764635Y-130618747D01*
G75*
G02*
X34377820Y-130775030I-271549J115266D01*
G01*
X34377820Y-130775030D01*
G75*
G02*
X34221537Y-130388215I115266J271549D01*
G01*
G37*
G36*
G01*
X33052496Y-129891987D02*
X33744090Y-128262693D01*
G75*
G02*
X34130905Y-128106410I271549J-115266D01*
G01*
X34130905Y-128106410D01*
G75*
G02*
X34287188Y-128493225I-115266J-271549D01*
G01*
X33595594Y-130122519D01*
G75*
G02*
X33208779Y-130278802I-271549J115266D01*
G01*
X33208779Y-130278802D01*
G75*
G02*
X33052496Y-129891987I115266J271549D01*
G01*
G37*
G36*
G01*
X31883455Y-129395758D02*
X32575049Y-127766464D01*
G75*
G02*
X32961864Y-127610181I271549J-115266D01*
G01*
X32961864Y-127610181D01*
G75*
G02*
X33118147Y-127996996I-115266J-271549D01*
G01*
X32426553Y-129626290D01*
G75*
G02*
X32039738Y-129782573I-271549J115266D01*
G01*
X32039738Y-129782573D01*
G75*
G02*
X31883455Y-129395758I115266J271549D01*
G01*
G37*
G36*
G01*
X30714414Y-128899530D02*
X31406008Y-127270236D01*
G75*
G02*
X31792823Y-127113953I271549J-115266D01*
G01*
X31792823Y-127113953D01*
G75*
G02*
X31949106Y-127500768I-115266J-271549D01*
G01*
X31257512Y-129130062D01*
G75*
G02*
X30870697Y-129286345I-271549J115266D01*
G01*
X30870697Y-129286345D01*
G75*
G02*
X30714414Y-128899530I115266J271549D01*
G01*
G37*
G36*
G01*
X29545373Y-128403301D02*
X30236967Y-126774007D01*
G75*
G02*
X30623782Y-126617724I271549J-115266D01*
G01*
X30623782Y-126617724D01*
G75*
G02*
X30780065Y-127004539I-115266J-271549D01*
G01*
X30088471Y-128633833D01*
G75*
G02*
X29701656Y-128790116I-271549J115266D01*
G01*
X29701656Y-128790116D01*
G75*
G02*
X29545373Y-128403301I115266J271549D01*
G01*
G37*
G36*
G01*
X28376331Y-127907073D02*
X29067925Y-126277779D01*
G75*
G02*
X29454740Y-126121496I271549J-115266D01*
G01*
X29454740Y-126121496D01*
G75*
G02*
X29611023Y-126508311I-115266J-271549D01*
G01*
X28919429Y-128137605D01*
G75*
G02*
X28532614Y-128293888I-271549J115266D01*
G01*
X28532614Y-128293888D01*
G75*
G02*
X28376331Y-127907073I115266J271549D01*
G01*
G37*
G36*
G01*
X27207290Y-127410844D02*
X27898884Y-125781550D01*
G75*
G02*
X28285699Y-125625267I271549J-115266D01*
G01*
X28285699Y-125625267D01*
G75*
G02*
X28441982Y-126012082I-115266J-271549D01*
G01*
X27750388Y-127641376D01*
G75*
G02*
X27363573Y-127797659I-271549J115266D01*
G01*
X27363573Y-127797659D01*
G75*
G02*
X27207290Y-127410844I115266J271549D01*
G01*
G37*
G36*
G01*
X26038249Y-126914615D02*
X26729843Y-125285321D01*
G75*
G02*
X27116658Y-125129038I271549J-115266D01*
G01*
X27116658Y-125129038D01*
G75*
G02*
X27272941Y-125515853I-115266J-271549D01*
G01*
X26581347Y-127145147D01*
G75*
G02*
X26194532Y-127301430I-271549J115266D01*
G01*
X26194532Y-127301430D01*
G75*
G02*
X26038249Y-126914615I115266J271549D01*
G01*
G37*
G36*
G01*
X24869208Y-126418387D02*
X25560802Y-124789093D01*
G75*
G02*
X25947617Y-124632810I271549J-115266D01*
G01*
X25947617Y-124632810D01*
G75*
G02*
X26103900Y-125019625I-115266J-271549D01*
G01*
X25412306Y-126648919D01*
G75*
G02*
X25025491Y-126805202I-271549J115266D01*
G01*
X25025491Y-126805202D01*
G75*
G02*
X24869208Y-126418387I115266J271549D01*
G01*
G37*
G36*
G01*
X23700167Y-125922158D02*
X24391761Y-124292864D01*
G75*
G02*
X24778576Y-124136581I271549J-115266D01*
G01*
X24778576Y-124136581D01*
G75*
G02*
X24934859Y-124523396I-115266J-271549D01*
G01*
X24243265Y-126152690D01*
G75*
G02*
X23856450Y-126308973I-271549J115266D01*
G01*
X23856450Y-126308973D01*
G75*
G02*
X23700167Y-125922158I115266J271549D01*
G01*
G37*
G36*
G01*
X22531126Y-125425930D02*
X23222720Y-123796636D01*
G75*
G02*
X23609535Y-123640353I271549J-115266D01*
G01*
X23609535Y-123640353D01*
G75*
G02*
X23765818Y-124027168I-115266J-271549D01*
G01*
X23074224Y-125656462D01*
G75*
G02*
X22687409Y-125812745I-271549J115266D01*
G01*
X22687409Y-125812745D01*
G75*
G02*
X22531126Y-125425930I115266J271549D01*
G01*
G37*
G36*
G01*
X21362085Y-124929701D02*
X22053679Y-123300407D01*
G75*
G02*
X22440494Y-123144124I271549J-115266D01*
G01*
X22440494Y-123144124D01*
G75*
G02*
X22596777Y-123530939I-115266J-271549D01*
G01*
X21905183Y-125160233D01*
G75*
G02*
X21518368Y-125316516I-271549J115266D01*
G01*
X21518368Y-125316516D01*
G75*
G02*
X21362085Y-124929701I115266J271549D01*
G01*
G37*
%TD*%
%TO.C,U4*%
G36*
G01*
X42352529Y-106215319D02*
X42659887Y-104472209D01*
G75*
G02*
X43001631Y-104232917I290518J-51226D01*
G01*
X43001631Y-104232917D01*
G75*
G02*
X43240923Y-104574661I-51226J-290518D01*
G01*
X42933565Y-106317771D01*
G75*
G02*
X42591821Y-106557063I-290518J51226D01*
G01*
X42591821Y-106557063D01*
G75*
G02*
X42352529Y-106215319I51226J290518D01*
G01*
G37*
G36*
G01*
X41101823Y-105994786D02*
X41409181Y-104251676D01*
G75*
G02*
X41750925Y-104012384I290518J-51226D01*
G01*
X41750925Y-104012384D01*
G75*
G02*
X41990217Y-104354128I-51226J-290518D01*
G01*
X41682859Y-106097238D01*
G75*
G02*
X41341115Y-106336530I-290518J51226D01*
G01*
X41341115Y-106336530D01*
G75*
G02*
X41101823Y-105994786I51226J290518D01*
G01*
G37*
G36*
G01*
X39851117Y-105774253D02*
X40158475Y-104031143D01*
G75*
G02*
X40500219Y-103791851I290518J-51226D01*
G01*
X40500219Y-103791851D01*
G75*
G02*
X40739511Y-104133595I-51226J-290518D01*
G01*
X40432153Y-105876705D01*
G75*
G02*
X40090409Y-106115997I-290518J51226D01*
G01*
X40090409Y-106115997D01*
G75*
G02*
X39851117Y-105774253I51226J290518D01*
G01*
G37*
G36*
G01*
X38600411Y-105553719D02*
X38907769Y-103810609D01*
G75*
G02*
X39249513Y-103571317I290518J-51226D01*
G01*
X39249513Y-103571317D01*
G75*
G02*
X39488805Y-103913061I-51226J-290518D01*
G01*
X39181447Y-105656171D01*
G75*
G02*
X38839703Y-105895463I-290518J51226D01*
G01*
X38839703Y-105895463D01*
G75*
G02*
X38600411Y-105553719I51226J290518D01*
G01*
G37*
G36*
G01*
X37349705Y-105333186D02*
X37657063Y-103590076D01*
G75*
G02*
X37998807Y-103350784I290518J-51226D01*
G01*
X37998807Y-103350784D01*
G75*
G02*
X38238099Y-103692528I-51226J-290518D01*
G01*
X37930741Y-105435638D01*
G75*
G02*
X37588997Y-105674930I-290518J51226D01*
G01*
X37588997Y-105674930D01*
G75*
G02*
X37349705Y-105333186I51226J290518D01*
G01*
G37*
G36*
G01*
X36098999Y-105112653D02*
X36406357Y-103369543D01*
G75*
G02*
X36748101Y-103130251I290518J-51226D01*
G01*
X36748101Y-103130251D01*
G75*
G02*
X36987393Y-103471995I-51226J-290518D01*
G01*
X36680035Y-105215105D01*
G75*
G02*
X36338291Y-105454397I-290518J51226D01*
G01*
X36338291Y-105454397D01*
G75*
G02*
X36098999Y-105112653I51226J290518D01*
G01*
G37*
G36*
G01*
X34848294Y-104892120D02*
X35155652Y-103149010D01*
G75*
G02*
X35497396Y-102909718I290518J-51226D01*
G01*
X35497396Y-102909718D01*
G75*
G02*
X35736688Y-103251462I-51226J-290518D01*
G01*
X35429330Y-104994572D01*
G75*
G02*
X35087586Y-105233864I-290518J51226D01*
G01*
X35087586Y-105233864D01*
G75*
G02*
X34848294Y-104892120I51226J290518D01*
G01*
G37*
G36*
G01*
X33597588Y-104671587D02*
X33904946Y-102928477D01*
G75*
G02*
X34246690Y-102689185I290518J-51226D01*
G01*
X34246690Y-102689185D01*
G75*
G02*
X34485982Y-103030929I-51226J-290518D01*
G01*
X34178624Y-104774039D01*
G75*
G02*
X33836880Y-105013331I-290518J51226D01*
G01*
X33836880Y-105013331D01*
G75*
G02*
X33597588Y-104671587I51226J290518D01*
G01*
G37*
G36*
G01*
X32346882Y-104451053D02*
X32654240Y-102707943D01*
G75*
G02*
X32995984Y-102468651I290518J-51226D01*
G01*
X32995984Y-102468651D01*
G75*
G02*
X33235276Y-102810395I-51226J-290518D01*
G01*
X32927918Y-104553505D01*
G75*
G02*
X32586174Y-104792797I-290518J51226D01*
G01*
X32586174Y-104792797D01*
G75*
G02*
X32346882Y-104451053I51226J290518D01*
G01*
G37*
G36*
G01*
X31096176Y-104230520D02*
X31403534Y-102487410D01*
G75*
G02*
X31745278Y-102248118I290518J-51226D01*
G01*
X31745278Y-102248118D01*
G75*
G02*
X31984570Y-102589862I-51226J-290518D01*
G01*
X31677212Y-104332972D01*
G75*
G02*
X31335468Y-104572264I-290518J51226D01*
G01*
X31335468Y-104572264D01*
G75*
G02*
X31096176Y-104230520I51226J290518D01*
G01*
G37*
G36*
G01*
X29845470Y-104009987D02*
X30152828Y-102266877D01*
G75*
G02*
X30494572Y-102027585I290518J-51226D01*
G01*
X30494572Y-102027585D01*
G75*
G02*
X30733864Y-102369329I-51226J-290518D01*
G01*
X30426506Y-104112439D01*
G75*
G02*
X30084762Y-104351731I-290518J51226D01*
G01*
X30084762Y-104351731D01*
G75*
G02*
X29845470Y-104009987I51226J290518D01*
G01*
G37*
G36*
G01*
X28594764Y-103789454D02*
X28902122Y-102046344D01*
G75*
G02*
X29243866Y-101807052I290518J-51226D01*
G01*
X29243866Y-101807052D01*
G75*
G02*
X29483158Y-102148796I-51226J-290518D01*
G01*
X29175800Y-103891906D01*
G75*
G02*
X28834056Y-104131198I-290518J51226D01*
G01*
X28834056Y-104131198D01*
G75*
G02*
X28594764Y-103789454I51226J290518D01*
G01*
G37*
G36*
G01*
X27344059Y-103568921D02*
X27651417Y-101825811D01*
G75*
G02*
X27993161Y-101586519I290518J-51226D01*
G01*
X27993161Y-101586519D01*
G75*
G02*
X28232453Y-101928263I-51226J-290518D01*
G01*
X27925095Y-103671373D01*
G75*
G02*
X27583351Y-103910665I-290518J51226D01*
G01*
X27583351Y-103910665D01*
G75*
G02*
X27344059Y-103568921I51226J290518D01*
G01*
G37*
G36*
G01*
X26093353Y-103348388D02*
X26400711Y-101605278D01*
G75*
G02*
X26742455Y-101365986I290518J-51226D01*
G01*
X26742455Y-101365986D01*
G75*
G02*
X26981747Y-101707730I-51226J-290518D01*
G01*
X26674389Y-103450840D01*
G75*
G02*
X26332645Y-103690132I-290518J51226D01*
G01*
X26332645Y-103690132D01*
G75*
G02*
X26093353Y-103348388I51226J290518D01*
G01*
G37*
G36*
G01*
X24842647Y-103127854D02*
X25150005Y-101384744D01*
G75*
G02*
X25491749Y-101145452I290518J-51226D01*
G01*
X25491749Y-101145452D01*
G75*
G02*
X25731041Y-101487196I-51226J-290518D01*
G01*
X25423683Y-103230306D01*
G75*
G02*
X25081939Y-103469598I-290518J51226D01*
G01*
X25081939Y-103469598D01*
G75*
G02*
X24842647Y-103127854I51226J290518D01*
G01*
G37*
G36*
G01*
X23591941Y-102907321D02*
X23899299Y-101164211D01*
G75*
G02*
X24241043Y-100924919I290518J-51226D01*
G01*
X24241043Y-100924919D01*
G75*
G02*
X24480335Y-101266663I-51226J-290518D01*
G01*
X24172977Y-103009773D01*
G75*
G02*
X23831233Y-103249065I-290518J51226D01*
G01*
X23831233Y-103249065D01*
G75*
G02*
X23591941Y-102907321I51226J290518D01*
G01*
G37*
G36*
G01*
X40709817Y-115531600D02*
X41017175Y-113788490D01*
G75*
G02*
X41358919Y-113549198I290518J-51226D01*
G01*
X41358919Y-113549198D01*
G75*
G02*
X41598211Y-113890942I-51226J-290518D01*
G01*
X41290853Y-115634052D01*
G75*
G02*
X40949109Y-115873344I-290518J51226D01*
G01*
X40949109Y-115873344D01*
G75*
G02*
X40709817Y-115531600I51226J290518D01*
G01*
G37*
G36*
G01*
X39459111Y-115311067D02*
X39766469Y-113567957D01*
G75*
G02*
X40108213Y-113328665I290518J-51226D01*
G01*
X40108213Y-113328665D01*
G75*
G02*
X40347505Y-113670409I-51226J-290518D01*
G01*
X40040147Y-115413519D01*
G75*
G02*
X39698403Y-115652811I-290518J51226D01*
G01*
X39698403Y-115652811D01*
G75*
G02*
X39459111Y-115311067I51226J290518D01*
G01*
G37*
G36*
G01*
X38208405Y-115090534D02*
X38515763Y-113347424D01*
G75*
G02*
X38857507Y-113108132I290518J-51226D01*
G01*
X38857507Y-113108132D01*
G75*
G02*
X39096799Y-113449876I-51226J-290518D01*
G01*
X38789441Y-115192986D01*
G75*
G02*
X38447697Y-115432278I-290518J51226D01*
G01*
X38447697Y-115432278D01*
G75*
G02*
X38208405Y-115090534I51226J290518D01*
G01*
G37*
G36*
G01*
X36957699Y-114870001D02*
X37265057Y-113126891D01*
G75*
G02*
X37606801Y-112887599I290518J-51226D01*
G01*
X37606801Y-112887599D01*
G75*
G02*
X37846093Y-113229343I-51226J-290518D01*
G01*
X37538735Y-114972453D01*
G75*
G02*
X37196991Y-115211745I-290518J51226D01*
G01*
X37196991Y-115211745D01*
G75*
G02*
X36957699Y-114870001I51226J290518D01*
G01*
G37*
G36*
G01*
X35706994Y-114649468D02*
X36014352Y-112906358D01*
G75*
G02*
X36356096Y-112667066I290518J-51226D01*
G01*
X36356096Y-112667066D01*
G75*
G02*
X36595388Y-113008810I-51226J-290518D01*
G01*
X36288030Y-114751920D01*
G75*
G02*
X35946286Y-114991212I-290518J51226D01*
G01*
X35946286Y-114991212D01*
G75*
G02*
X35706994Y-114649468I51226J290518D01*
G01*
G37*
G36*
G01*
X34456288Y-114428934D02*
X34763646Y-112685824D01*
G75*
G02*
X35105390Y-112446532I290518J-51226D01*
G01*
X35105390Y-112446532D01*
G75*
G02*
X35344682Y-112788276I-51226J-290518D01*
G01*
X35037324Y-114531386D01*
G75*
G02*
X34695580Y-114770678I-290518J51226D01*
G01*
X34695580Y-114770678D01*
G75*
G02*
X34456288Y-114428934I51226J290518D01*
G01*
G37*
G36*
G01*
X33205582Y-114208401D02*
X33512940Y-112465291D01*
G75*
G02*
X33854684Y-112225999I290518J-51226D01*
G01*
X33854684Y-112225999D01*
G75*
G02*
X34093976Y-112567743I-51226J-290518D01*
G01*
X33786618Y-114310853D01*
G75*
G02*
X33444874Y-114550145I-290518J51226D01*
G01*
X33444874Y-114550145D01*
G75*
G02*
X33205582Y-114208401I51226J290518D01*
G01*
G37*
G36*
G01*
X31954876Y-113987868D02*
X32262234Y-112244758D01*
G75*
G02*
X32603978Y-112005466I290518J-51226D01*
G01*
X32603978Y-112005466D01*
G75*
G02*
X32843270Y-112347210I-51226J-290518D01*
G01*
X32535912Y-114090320D01*
G75*
G02*
X32194168Y-114329612I-290518J51226D01*
G01*
X32194168Y-114329612D01*
G75*
G02*
X31954876Y-113987868I51226J290518D01*
G01*
G37*
G36*
G01*
X30704170Y-113767335D02*
X31011528Y-112024225D01*
G75*
G02*
X31353272Y-111784933I290518J-51226D01*
G01*
X31353272Y-111784933D01*
G75*
G02*
X31592564Y-112126677I-51226J-290518D01*
G01*
X31285206Y-113869787D01*
G75*
G02*
X30943462Y-114109079I-290518J51226D01*
G01*
X30943462Y-114109079D01*
G75*
G02*
X30704170Y-113767335I51226J290518D01*
G01*
G37*
G36*
G01*
X29453464Y-113546802D02*
X29760822Y-111803692D01*
G75*
G02*
X30102566Y-111564400I290518J-51226D01*
G01*
X30102566Y-111564400D01*
G75*
G02*
X30341858Y-111906144I-51226J-290518D01*
G01*
X30034500Y-113649254D01*
G75*
G02*
X29692756Y-113888546I-290518J51226D01*
G01*
X29692756Y-113888546D01*
G75*
G02*
X29453464Y-113546802I51226J290518D01*
G01*
G37*
G36*
G01*
X28202758Y-113326268D02*
X28510116Y-111583158D01*
G75*
G02*
X28851860Y-111343866I290518J-51226D01*
G01*
X28851860Y-111343866D01*
G75*
G02*
X29091152Y-111685610I-51226J-290518D01*
G01*
X28783794Y-113428720D01*
G75*
G02*
X28442050Y-113668012I-290518J51226D01*
G01*
X28442050Y-113668012D01*
G75*
G02*
X28202758Y-113326268I51226J290518D01*
G01*
G37*
G36*
G01*
X26952053Y-113105735D02*
X27259411Y-111362625D01*
G75*
G02*
X27601155Y-111123333I290518J-51226D01*
G01*
X27601155Y-111123333D01*
G75*
G02*
X27840447Y-111465077I-51226J-290518D01*
G01*
X27533089Y-113208187D01*
G75*
G02*
X27191345Y-113447479I-290518J51226D01*
G01*
X27191345Y-113447479D01*
G75*
G02*
X26952053Y-113105735I51226J290518D01*
G01*
G37*
G36*
G01*
X25701347Y-112885202D02*
X26008705Y-111142092D01*
G75*
G02*
X26350449Y-110902800I290518J-51226D01*
G01*
X26350449Y-110902800D01*
G75*
G02*
X26589741Y-111244544I-51226J-290518D01*
G01*
X26282383Y-112987654D01*
G75*
G02*
X25940639Y-113226946I-290518J51226D01*
G01*
X25940639Y-113226946D01*
G75*
G02*
X25701347Y-112885202I51226J290518D01*
G01*
G37*
G36*
G01*
X24450641Y-112664669D02*
X24757999Y-110921559D01*
G75*
G02*
X25099743Y-110682267I290518J-51226D01*
G01*
X25099743Y-110682267D01*
G75*
G02*
X25339035Y-111024011I-51226J-290518D01*
G01*
X25031677Y-112767121D01*
G75*
G02*
X24689933Y-113006413I-290518J51226D01*
G01*
X24689933Y-113006413D01*
G75*
G02*
X24450641Y-112664669I51226J290518D01*
G01*
G37*
G36*
G01*
X23199935Y-112444136D02*
X23507293Y-110701026D01*
G75*
G02*
X23849037Y-110461734I290518J-51226D01*
G01*
X23849037Y-110461734D01*
G75*
G02*
X24088329Y-110803478I-51226J-290518D01*
G01*
X23780971Y-112546588D01*
G75*
G02*
X23439227Y-112785880I-290518J51226D01*
G01*
X23439227Y-112785880D01*
G75*
G02*
X23199935Y-112444136I51226J290518D01*
G01*
G37*
G36*
G01*
X21949229Y-112223603D02*
X22256587Y-110480493D01*
G75*
G02*
X22598331Y-110241201I290518J-51226D01*
G01*
X22598331Y-110241201D01*
G75*
G02*
X22837623Y-110582945I-51226J-290518D01*
G01*
X22530265Y-112326055D01*
G75*
G02*
X22188521Y-112565347I-290518J51226D01*
G01*
X22188521Y-112565347D01*
G75*
G02*
X21949229Y-112223603I51226J290518D01*
G01*
G37*
%TD*%
D11*
%TO.C,U3*%
X42120000Y-89070000D03*
X40850000Y-89070000D03*
X39580000Y-89070000D03*
X38310000Y-89070000D03*
X37040000Y-89070000D03*
X35770000Y-89070000D03*
X34500000Y-89070000D03*
X33230000Y-89070000D03*
X31960000Y-89070000D03*
X30690000Y-89070000D03*
X29420000Y-89070000D03*
X28150000Y-89070000D03*
X26880000Y-89070000D03*
X25610000Y-89070000D03*
X24340000Y-89070000D03*
X23070000Y-89070000D03*
X42120000Y-98530000D03*
X40850000Y-98530000D03*
X39580000Y-98530000D03*
X38310000Y-98530000D03*
X37040000Y-98530000D03*
X35770000Y-98530000D03*
X34500000Y-98530000D03*
X33230000Y-98530000D03*
X31960000Y-98530000D03*
X30690000Y-98530000D03*
X29420000Y-98530000D03*
X28150000Y-98530000D03*
X26880000Y-98530000D03*
X25610000Y-98530000D03*
X24340000Y-98530000D03*
X23070000Y-98530000D03*
%TD*%
%TO.C,U2*%
X42120000Y-74470000D03*
X40850000Y-74470000D03*
X39580000Y-74470000D03*
X38310000Y-74470000D03*
X37040000Y-74470000D03*
X35770000Y-74470000D03*
X34500000Y-74470000D03*
X33230000Y-74470000D03*
X31960000Y-74470000D03*
X30690000Y-74470000D03*
X29420000Y-74470000D03*
X28150000Y-74470000D03*
X26880000Y-74470000D03*
X25610000Y-74470000D03*
X24340000Y-74470000D03*
X23070000Y-74470000D03*
X42120000Y-83930000D03*
X40850000Y-83930000D03*
X39580000Y-83930000D03*
X38310000Y-83930000D03*
X37040000Y-83930000D03*
X35770000Y-83930000D03*
X34500000Y-83930000D03*
X33230000Y-83930000D03*
X31960000Y-83930000D03*
X30690000Y-83930000D03*
X29420000Y-83930000D03*
X28150000Y-83930000D03*
X26880000Y-83930000D03*
X25610000Y-83930000D03*
X24340000Y-83930000D03*
X23070000Y-83930000D03*
%TD*%
%TO.C,U1*%
G36*
G01*
X41017175Y-59211510D02*
X40709817Y-57468400D01*
G75*
G02*
X40949109Y-57126656I290518J51226D01*
G01*
X40949109Y-57126656D01*
G75*
G02*
X41290853Y-57365948I51226J-290518D01*
G01*
X41598211Y-59109058D01*
G75*
G02*
X41358919Y-59450802I-290518J-51226D01*
G01*
X41358919Y-59450802D01*
G75*
G02*
X41017175Y-59211510I-51226J290518D01*
G01*
G37*
G36*
G01*
X39766469Y-59432043D02*
X39459111Y-57688933D01*
G75*
G02*
X39698403Y-57347189I290518J51226D01*
G01*
X39698403Y-57347189D01*
G75*
G02*
X40040147Y-57586481I51226J-290518D01*
G01*
X40347505Y-59329591D01*
G75*
G02*
X40108213Y-59671335I-290518J-51226D01*
G01*
X40108213Y-59671335D01*
G75*
G02*
X39766469Y-59432043I-51226J290518D01*
G01*
G37*
G36*
G01*
X38515763Y-59652576D02*
X38208405Y-57909466D01*
G75*
G02*
X38447697Y-57567722I290518J51226D01*
G01*
X38447697Y-57567722D01*
G75*
G02*
X38789441Y-57807014I51226J-290518D01*
G01*
X39096799Y-59550124D01*
G75*
G02*
X38857507Y-59891868I-290518J-51226D01*
G01*
X38857507Y-59891868D01*
G75*
G02*
X38515763Y-59652576I-51226J290518D01*
G01*
G37*
G36*
G01*
X37265057Y-59873109D02*
X36957699Y-58129999D01*
G75*
G02*
X37196991Y-57788255I290518J51226D01*
G01*
X37196991Y-57788255D01*
G75*
G02*
X37538735Y-58027547I51226J-290518D01*
G01*
X37846093Y-59770657D01*
G75*
G02*
X37606801Y-60112401I-290518J-51226D01*
G01*
X37606801Y-60112401D01*
G75*
G02*
X37265057Y-59873109I-51226J290518D01*
G01*
G37*
G36*
G01*
X36014352Y-60093642D02*
X35706994Y-58350532D01*
G75*
G02*
X35946286Y-58008788I290518J51226D01*
G01*
X35946286Y-58008788D01*
G75*
G02*
X36288030Y-58248080I51226J-290518D01*
G01*
X36595388Y-59991190D01*
G75*
G02*
X36356096Y-60332934I-290518J-51226D01*
G01*
X36356096Y-60332934D01*
G75*
G02*
X36014352Y-60093642I-51226J290518D01*
G01*
G37*
G36*
G01*
X34763646Y-60314176D02*
X34456288Y-58571066D01*
G75*
G02*
X34695580Y-58229322I290518J51226D01*
G01*
X34695580Y-58229322D01*
G75*
G02*
X35037324Y-58468614I51226J-290518D01*
G01*
X35344682Y-60211724D01*
G75*
G02*
X35105390Y-60553468I-290518J-51226D01*
G01*
X35105390Y-60553468D01*
G75*
G02*
X34763646Y-60314176I-51226J290518D01*
G01*
G37*
G36*
G01*
X33512940Y-60534709D02*
X33205582Y-58791599D01*
G75*
G02*
X33444874Y-58449855I290518J51226D01*
G01*
X33444874Y-58449855D01*
G75*
G02*
X33786618Y-58689147I51226J-290518D01*
G01*
X34093976Y-60432257D01*
G75*
G02*
X33854684Y-60774001I-290518J-51226D01*
G01*
X33854684Y-60774001D01*
G75*
G02*
X33512940Y-60534709I-51226J290518D01*
G01*
G37*
G36*
G01*
X32262234Y-60755242D02*
X31954876Y-59012132D01*
G75*
G02*
X32194168Y-58670388I290518J51226D01*
G01*
X32194168Y-58670388D01*
G75*
G02*
X32535912Y-58909680I51226J-290518D01*
G01*
X32843270Y-60652790D01*
G75*
G02*
X32603978Y-60994534I-290518J-51226D01*
G01*
X32603978Y-60994534D01*
G75*
G02*
X32262234Y-60755242I-51226J290518D01*
G01*
G37*
G36*
G01*
X31011528Y-60975775D02*
X30704170Y-59232665D01*
G75*
G02*
X30943462Y-58890921I290518J51226D01*
G01*
X30943462Y-58890921D01*
G75*
G02*
X31285206Y-59130213I51226J-290518D01*
G01*
X31592564Y-60873323D01*
G75*
G02*
X31353272Y-61215067I-290518J-51226D01*
G01*
X31353272Y-61215067D01*
G75*
G02*
X31011528Y-60975775I-51226J290518D01*
G01*
G37*
G36*
G01*
X29760822Y-61196308D02*
X29453464Y-59453198D01*
G75*
G02*
X29692756Y-59111454I290518J51226D01*
G01*
X29692756Y-59111454D01*
G75*
G02*
X30034500Y-59350746I51226J-290518D01*
G01*
X30341858Y-61093856D01*
G75*
G02*
X30102566Y-61435600I-290518J-51226D01*
G01*
X30102566Y-61435600D01*
G75*
G02*
X29760822Y-61196308I-51226J290518D01*
G01*
G37*
G36*
G01*
X28510116Y-61416842D02*
X28202758Y-59673732D01*
G75*
G02*
X28442050Y-59331988I290518J51226D01*
G01*
X28442050Y-59331988D01*
G75*
G02*
X28783794Y-59571280I51226J-290518D01*
G01*
X29091152Y-61314390D01*
G75*
G02*
X28851860Y-61656134I-290518J-51226D01*
G01*
X28851860Y-61656134D01*
G75*
G02*
X28510116Y-61416842I-51226J290518D01*
G01*
G37*
G36*
G01*
X27259411Y-61637375D02*
X26952053Y-59894265D01*
G75*
G02*
X27191345Y-59552521I290518J51226D01*
G01*
X27191345Y-59552521D01*
G75*
G02*
X27533089Y-59791813I51226J-290518D01*
G01*
X27840447Y-61534923D01*
G75*
G02*
X27601155Y-61876667I-290518J-51226D01*
G01*
X27601155Y-61876667D01*
G75*
G02*
X27259411Y-61637375I-51226J290518D01*
G01*
G37*
G36*
G01*
X26008705Y-61857908D02*
X25701347Y-60114798D01*
G75*
G02*
X25940639Y-59773054I290518J51226D01*
G01*
X25940639Y-59773054D01*
G75*
G02*
X26282383Y-60012346I51226J-290518D01*
G01*
X26589741Y-61755456D01*
G75*
G02*
X26350449Y-62097200I-290518J-51226D01*
G01*
X26350449Y-62097200D01*
G75*
G02*
X26008705Y-61857908I-51226J290518D01*
G01*
G37*
G36*
G01*
X24757999Y-62078441D02*
X24450641Y-60335331D01*
G75*
G02*
X24689933Y-59993587I290518J51226D01*
G01*
X24689933Y-59993587D01*
G75*
G02*
X25031677Y-60232879I51226J-290518D01*
G01*
X25339035Y-61975989D01*
G75*
G02*
X25099743Y-62317733I-290518J-51226D01*
G01*
X25099743Y-62317733D01*
G75*
G02*
X24757999Y-62078441I-51226J290518D01*
G01*
G37*
G36*
G01*
X23507293Y-62298974D02*
X23199935Y-60555864D01*
G75*
G02*
X23439227Y-60214120I290518J51226D01*
G01*
X23439227Y-60214120D01*
G75*
G02*
X23780971Y-60453412I51226J-290518D01*
G01*
X24088329Y-62196522D01*
G75*
G02*
X23849037Y-62538266I-290518J-51226D01*
G01*
X23849037Y-62538266D01*
G75*
G02*
X23507293Y-62298974I-51226J290518D01*
G01*
G37*
G36*
G01*
X22256587Y-62519507D02*
X21949229Y-60776397D01*
G75*
G02*
X22188521Y-60434653I290518J51226D01*
G01*
X22188521Y-60434653D01*
G75*
G02*
X22530265Y-60673945I51226J-290518D01*
G01*
X22837623Y-62417055D01*
G75*
G02*
X22598331Y-62758799I-290518J-51226D01*
G01*
X22598331Y-62758799D01*
G75*
G02*
X22256587Y-62519507I-51226J290518D01*
G01*
G37*
G36*
G01*
X42659887Y-68527791D02*
X42352529Y-66784681D01*
G75*
G02*
X42591821Y-66442937I290518J51226D01*
G01*
X42591821Y-66442937D01*
G75*
G02*
X42933565Y-66682229I51226J-290518D01*
G01*
X43240923Y-68425339D01*
G75*
G02*
X43001631Y-68767083I-290518J-51226D01*
G01*
X43001631Y-68767083D01*
G75*
G02*
X42659887Y-68527791I-51226J290518D01*
G01*
G37*
G36*
G01*
X41409181Y-68748324D02*
X41101823Y-67005214D01*
G75*
G02*
X41341115Y-66663470I290518J51226D01*
G01*
X41341115Y-66663470D01*
G75*
G02*
X41682859Y-66902762I51226J-290518D01*
G01*
X41990217Y-68645872D01*
G75*
G02*
X41750925Y-68987616I-290518J-51226D01*
G01*
X41750925Y-68987616D01*
G75*
G02*
X41409181Y-68748324I-51226J290518D01*
G01*
G37*
G36*
G01*
X40158475Y-68968857D02*
X39851117Y-67225747D01*
G75*
G02*
X40090409Y-66884003I290518J51226D01*
G01*
X40090409Y-66884003D01*
G75*
G02*
X40432153Y-67123295I51226J-290518D01*
G01*
X40739511Y-68866405D01*
G75*
G02*
X40500219Y-69208149I-290518J-51226D01*
G01*
X40500219Y-69208149D01*
G75*
G02*
X40158475Y-68968857I-51226J290518D01*
G01*
G37*
G36*
G01*
X38907769Y-69189391D02*
X38600411Y-67446281D01*
G75*
G02*
X38839703Y-67104537I290518J51226D01*
G01*
X38839703Y-67104537D01*
G75*
G02*
X39181447Y-67343829I51226J-290518D01*
G01*
X39488805Y-69086939D01*
G75*
G02*
X39249513Y-69428683I-290518J-51226D01*
G01*
X39249513Y-69428683D01*
G75*
G02*
X38907769Y-69189391I-51226J290518D01*
G01*
G37*
G36*
G01*
X37657063Y-69409924D02*
X37349705Y-67666814D01*
G75*
G02*
X37588997Y-67325070I290518J51226D01*
G01*
X37588997Y-67325070D01*
G75*
G02*
X37930741Y-67564362I51226J-290518D01*
G01*
X38238099Y-69307472D01*
G75*
G02*
X37998807Y-69649216I-290518J-51226D01*
G01*
X37998807Y-69649216D01*
G75*
G02*
X37657063Y-69409924I-51226J290518D01*
G01*
G37*
G36*
G01*
X36406357Y-69630457D02*
X36098999Y-67887347D01*
G75*
G02*
X36338291Y-67545603I290518J51226D01*
G01*
X36338291Y-67545603D01*
G75*
G02*
X36680035Y-67784895I51226J-290518D01*
G01*
X36987393Y-69528005D01*
G75*
G02*
X36748101Y-69869749I-290518J-51226D01*
G01*
X36748101Y-69869749D01*
G75*
G02*
X36406357Y-69630457I-51226J290518D01*
G01*
G37*
G36*
G01*
X35155652Y-69850990D02*
X34848294Y-68107880D01*
G75*
G02*
X35087586Y-67766136I290518J51226D01*
G01*
X35087586Y-67766136D01*
G75*
G02*
X35429330Y-68005428I51226J-290518D01*
G01*
X35736688Y-69748538D01*
G75*
G02*
X35497396Y-70090282I-290518J-51226D01*
G01*
X35497396Y-70090282D01*
G75*
G02*
X35155652Y-69850990I-51226J290518D01*
G01*
G37*
G36*
G01*
X33904946Y-70071523D02*
X33597588Y-68328413D01*
G75*
G02*
X33836880Y-67986669I290518J51226D01*
G01*
X33836880Y-67986669D01*
G75*
G02*
X34178624Y-68225961I51226J-290518D01*
G01*
X34485982Y-69969071D01*
G75*
G02*
X34246690Y-70310815I-290518J-51226D01*
G01*
X34246690Y-70310815D01*
G75*
G02*
X33904946Y-70071523I-51226J290518D01*
G01*
G37*
G36*
G01*
X32654240Y-70292057D02*
X32346882Y-68548947D01*
G75*
G02*
X32586174Y-68207203I290518J51226D01*
G01*
X32586174Y-68207203D01*
G75*
G02*
X32927918Y-68446495I51226J-290518D01*
G01*
X33235276Y-70189605D01*
G75*
G02*
X32995984Y-70531349I-290518J-51226D01*
G01*
X32995984Y-70531349D01*
G75*
G02*
X32654240Y-70292057I-51226J290518D01*
G01*
G37*
G36*
G01*
X31403534Y-70512590D02*
X31096176Y-68769480D01*
G75*
G02*
X31335468Y-68427736I290518J51226D01*
G01*
X31335468Y-68427736D01*
G75*
G02*
X31677212Y-68667028I51226J-290518D01*
G01*
X31984570Y-70410138D01*
G75*
G02*
X31745278Y-70751882I-290518J-51226D01*
G01*
X31745278Y-70751882D01*
G75*
G02*
X31403534Y-70512590I-51226J290518D01*
G01*
G37*
G36*
G01*
X30152828Y-70733123D02*
X29845470Y-68990013D01*
G75*
G02*
X30084762Y-68648269I290518J51226D01*
G01*
X30084762Y-68648269D01*
G75*
G02*
X30426506Y-68887561I51226J-290518D01*
G01*
X30733864Y-70630671D01*
G75*
G02*
X30494572Y-70972415I-290518J-51226D01*
G01*
X30494572Y-70972415D01*
G75*
G02*
X30152828Y-70733123I-51226J290518D01*
G01*
G37*
G36*
G01*
X28902122Y-70953656D02*
X28594764Y-69210546D01*
G75*
G02*
X28834056Y-68868802I290518J51226D01*
G01*
X28834056Y-68868802D01*
G75*
G02*
X29175800Y-69108094I51226J-290518D01*
G01*
X29483158Y-70851204D01*
G75*
G02*
X29243866Y-71192948I-290518J-51226D01*
G01*
X29243866Y-71192948D01*
G75*
G02*
X28902122Y-70953656I-51226J290518D01*
G01*
G37*
G36*
G01*
X27651417Y-71174189D02*
X27344059Y-69431079D01*
G75*
G02*
X27583351Y-69089335I290518J51226D01*
G01*
X27583351Y-69089335D01*
G75*
G02*
X27925095Y-69328627I51226J-290518D01*
G01*
X28232453Y-71071737D01*
G75*
G02*
X27993161Y-71413481I-290518J-51226D01*
G01*
X27993161Y-71413481D01*
G75*
G02*
X27651417Y-71174189I-51226J290518D01*
G01*
G37*
G36*
G01*
X26400711Y-71394722D02*
X26093353Y-69651612D01*
G75*
G02*
X26332645Y-69309868I290518J51226D01*
G01*
X26332645Y-69309868D01*
G75*
G02*
X26674389Y-69549160I51226J-290518D01*
G01*
X26981747Y-71292270D01*
G75*
G02*
X26742455Y-71634014I-290518J-51226D01*
G01*
X26742455Y-71634014D01*
G75*
G02*
X26400711Y-71394722I-51226J290518D01*
G01*
G37*
G36*
G01*
X25150005Y-71615256D02*
X24842647Y-69872146D01*
G75*
G02*
X25081939Y-69530402I290518J51226D01*
G01*
X25081939Y-69530402D01*
G75*
G02*
X25423683Y-69769694I51226J-290518D01*
G01*
X25731041Y-71512804D01*
G75*
G02*
X25491749Y-71854548I-290518J-51226D01*
G01*
X25491749Y-71854548D01*
G75*
G02*
X25150005Y-71615256I-51226J290518D01*
G01*
G37*
G36*
G01*
X23899299Y-71835789D02*
X23591941Y-70092679D01*
G75*
G02*
X23831233Y-69750935I290518J51226D01*
G01*
X23831233Y-69750935D01*
G75*
G02*
X24172977Y-69990227I51226J-290518D01*
G01*
X24480335Y-71733337D01*
G75*
G02*
X24241043Y-72075081I-290518J-51226D01*
G01*
X24241043Y-72075081D01*
G75*
G02*
X23899299Y-71835789I-51226J290518D01*
G01*
G37*
%TD*%
%TO.C,U0*%
G36*
G01*
X39189296Y-42456165D02*
X38497702Y-40826871D01*
G75*
G02*
X38653985Y-40440056I271549J115266D01*
G01*
X38653985Y-40440056D01*
G75*
G02*
X39040800Y-40596339I115266J-271549D01*
G01*
X39732394Y-42225633D01*
G75*
G02*
X39576111Y-42612448I-271549J-115266D01*
G01*
X39576111Y-42612448D01*
G75*
G02*
X39189296Y-42456165I-115266J271549D01*
G01*
G37*
G36*
G01*
X38020255Y-42952393D02*
X37328661Y-41323099D01*
G75*
G02*
X37484944Y-40936284I271549J115266D01*
G01*
X37484944Y-40936284D01*
G75*
G02*
X37871759Y-41092567I115266J-271549D01*
G01*
X38563353Y-42721861D01*
G75*
G02*
X38407070Y-43108676I-271549J-115266D01*
G01*
X38407070Y-43108676D01*
G75*
G02*
X38020255Y-42952393I-115266J271549D01*
G01*
G37*
G36*
G01*
X36851214Y-43448622D02*
X36159620Y-41819328D01*
G75*
G02*
X36315903Y-41432513I271549J115266D01*
G01*
X36315903Y-41432513D01*
G75*
G02*
X36702718Y-41588796I115266J-271549D01*
G01*
X37394312Y-43218090D01*
G75*
G02*
X37238029Y-43604905I-271549J-115266D01*
G01*
X37238029Y-43604905D01*
G75*
G02*
X36851214Y-43448622I-115266J271549D01*
G01*
G37*
G36*
G01*
X35682172Y-43944850D02*
X34990578Y-42315556D01*
G75*
G02*
X35146861Y-41928741I271549J115266D01*
G01*
X35146861Y-41928741D01*
G75*
G02*
X35533676Y-42085024I115266J-271549D01*
G01*
X36225270Y-43714318D01*
G75*
G02*
X36068987Y-44101133I-271549J-115266D01*
G01*
X36068987Y-44101133D01*
G75*
G02*
X35682172Y-43944850I-115266J271549D01*
G01*
G37*
G36*
G01*
X34513131Y-44441079D02*
X33821537Y-42811785D01*
G75*
G02*
X33977820Y-42424970I271549J115266D01*
G01*
X33977820Y-42424970D01*
G75*
G02*
X34364635Y-42581253I115266J-271549D01*
G01*
X35056229Y-44210547D01*
G75*
G02*
X34899946Y-44597362I-271549J-115266D01*
G01*
X34899946Y-44597362D01*
G75*
G02*
X34513131Y-44441079I-115266J271549D01*
G01*
G37*
G36*
G01*
X33344090Y-44937307D02*
X32652496Y-43308013D01*
G75*
G02*
X32808779Y-42921198I271549J115266D01*
G01*
X32808779Y-42921198D01*
G75*
G02*
X33195594Y-43077481I115266J-271549D01*
G01*
X33887188Y-44706775D01*
G75*
G02*
X33730905Y-45093590I-271549J-115266D01*
G01*
X33730905Y-45093590D01*
G75*
G02*
X33344090Y-44937307I-115266J271549D01*
G01*
G37*
G36*
G01*
X32175049Y-45433536D02*
X31483455Y-43804242D01*
G75*
G02*
X31639738Y-43417427I271549J115266D01*
G01*
X31639738Y-43417427D01*
G75*
G02*
X32026553Y-43573710I115266J-271549D01*
G01*
X32718147Y-45203004D01*
G75*
G02*
X32561864Y-45589819I-271549J-115266D01*
G01*
X32561864Y-45589819D01*
G75*
G02*
X32175049Y-45433536I-115266J271549D01*
G01*
G37*
G36*
G01*
X31006008Y-45929764D02*
X30314414Y-44300470D01*
G75*
G02*
X30470697Y-43913655I271549J115266D01*
G01*
X30470697Y-43913655D01*
G75*
G02*
X30857512Y-44069938I115266J-271549D01*
G01*
X31549106Y-45699232D01*
G75*
G02*
X31392823Y-46086047I-271549J-115266D01*
G01*
X31392823Y-46086047D01*
G75*
G02*
X31006008Y-45929764I-115266J271549D01*
G01*
G37*
G36*
G01*
X29836967Y-46425993D02*
X29145373Y-44796699D01*
G75*
G02*
X29301656Y-44409884I271549J115266D01*
G01*
X29301656Y-44409884D01*
G75*
G02*
X29688471Y-44566167I115266J-271549D01*
G01*
X30380065Y-46195461D01*
G75*
G02*
X30223782Y-46582276I-271549J-115266D01*
G01*
X30223782Y-46582276D01*
G75*
G02*
X29836967Y-46425993I-115266J271549D01*
G01*
G37*
G36*
G01*
X28667925Y-46922221D02*
X27976331Y-45292927D01*
G75*
G02*
X28132614Y-44906112I271549J115266D01*
G01*
X28132614Y-44906112D01*
G75*
G02*
X28519429Y-45062395I115266J-271549D01*
G01*
X29211023Y-46691689D01*
G75*
G02*
X29054740Y-47078504I-271549J-115266D01*
G01*
X29054740Y-47078504D01*
G75*
G02*
X28667925Y-46922221I-115266J271549D01*
G01*
G37*
G36*
G01*
X27498884Y-47418450D02*
X26807290Y-45789156D01*
G75*
G02*
X26963573Y-45402341I271549J115266D01*
G01*
X26963573Y-45402341D01*
G75*
G02*
X27350388Y-45558624I115266J-271549D01*
G01*
X28041982Y-47187918D01*
G75*
G02*
X27885699Y-47574733I-271549J-115266D01*
G01*
X27885699Y-47574733D01*
G75*
G02*
X27498884Y-47418450I-115266J271549D01*
G01*
G37*
G36*
G01*
X26329843Y-47914679D02*
X25638249Y-46285385D01*
G75*
G02*
X25794532Y-45898570I271549J115266D01*
G01*
X25794532Y-45898570D01*
G75*
G02*
X26181347Y-46054853I115266J-271549D01*
G01*
X26872941Y-47684147D01*
G75*
G02*
X26716658Y-48070962I-271549J-115266D01*
G01*
X26716658Y-48070962D01*
G75*
G02*
X26329843Y-47914679I-115266J271549D01*
G01*
G37*
G36*
G01*
X25160802Y-48410907D02*
X24469208Y-46781613D01*
G75*
G02*
X24625491Y-46394798I271549J115266D01*
G01*
X24625491Y-46394798D01*
G75*
G02*
X25012306Y-46551081I115266J-271549D01*
G01*
X25703900Y-48180375D01*
G75*
G02*
X25547617Y-48567190I-271549J-115266D01*
G01*
X25547617Y-48567190D01*
G75*
G02*
X25160802Y-48410907I-115266J271549D01*
G01*
G37*
G36*
G01*
X23991761Y-48907136D02*
X23300167Y-47277842D01*
G75*
G02*
X23456450Y-46891027I271549J115266D01*
G01*
X23456450Y-46891027D01*
G75*
G02*
X23843265Y-47047310I115266J-271549D01*
G01*
X24534859Y-48676604D01*
G75*
G02*
X24378576Y-49063419I-271549J-115266D01*
G01*
X24378576Y-49063419D01*
G75*
G02*
X23991761Y-48907136I-115266J271549D01*
G01*
G37*
G36*
G01*
X22822720Y-49403364D02*
X22131126Y-47774070D01*
G75*
G02*
X22287409Y-47387255I271549J115266D01*
G01*
X22287409Y-47387255D01*
G75*
G02*
X22674224Y-47543538I115266J-271549D01*
G01*
X23365818Y-49172832D01*
G75*
G02*
X23209535Y-49559647I-271549J-115266D01*
G01*
X23209535Y-49559647D01*
G75*
G02*
X22822720Y-49403364I-115266J271549D01*
G01*
G37*
G36*
G01*
X21653679Y-49899593D02*
X20962085Y-48270299D01*
G75*
G02*
X21118368Y-47883484I271549J115266D01*
G01*
X21118368Y-47883484D01*
G75*
G02*
X21505183Y-48039767I115266J-271549D01*
G01*
X22196777Y-49669061D01*
G75*
G02*
X22040494Y-50055876I-271549J-115266D01*
G01*
X22040494Y-50055876D01*
G75*
G02*
X21653679Y-49899593I-115266J271549D01*
G01*
G37*
G36*
G01*
X42885612Y-51164141D02*
X42194018Y-49534847D01*
G75*
G02*
X42350301Y-49148032I271549J115266D01*
G01*
X42350301Y-49148032D01*
G75*
G02*
X42737116Y-49304315I115266J-271549D01*
G01*
X43428710Y-50933609D01*
G75*
G02*
X43272427Y-51320424I-271549J-115266D01*
G01*
X43272427Y-51320424D01*
G75*
G02*
X42885612Y-51164141I-115266J271549D01*
G01*
G37*
G36*
G01*
X41716571Y-51660369D02*
X41024977Y-50031075D01*
G75*
G02*
X41181260Y-49644260I271549J115266D01*
G01*
X41181260Y-49644260D01*
G75*
G02*
X41568075Y-49800543I115266J-271549D01*
G01*
X42259669Y-51429837D01*
G75*
G02*
X42103386Y-51816652I-271549J-115266D01*
G01*
X42103386Y-51816652D01*
G75*
G02*
X41716571Y-51660369I-115266J271549D01*
G01*
G37*
G36*
G01*
X40547530Y-52156598D02*
X39855936Y-50527304D01*
G75*
G02*
X40012219Y-50140489I271549J115266D01*
G01*
X40012219Y-50140489D01*
G75*
G02*
X40399034Y-50296772I115266J-271549D01*
G01*
X41090628Y-51926066D01*
G75*
G02*
X40934345Y-52312881I-271549J-115266D01*
G01*
X40934345Y-52312881D01*
G75*
G02*
X40547530Y-52156598I-115266J271549D01*
G01*
G37*
G36*
G01*
X39378489Y-52652826D02*
X38686895Y-51023532D01*
G75*
G02*
X38843178Y-50636717I271549J115266D01*
G01*
X38843178Y-50636717D01*
G75*
G02*
X39229993Y-50793000I115266J-271549D01*
G01*
X39921587Y-52422294D01*
G75*
G02*
X39765304Y-52809109I-271549J-115266D01*
G01*
X39765304Y-52809109D01*
G75*
G02*
X39378489Y-52652826I-115266J271549D01*
G01*
G37*
G36*
G01*
X38209448Y-53149055D02*
X37517854Y-51519761D01*
G75*
G02*
X37674137Y-51132946I271549J115266D01*
G01*
X37674137Y-51132946D01*
G75*
G02*
X38060952Y-51289229I115266J-271549D01*
G01*
X38752546Y-52918523D01*
G75*
G02*
X38596263Y-53305338I-271549J-115266D01*
G01*
X38596263Y-53305338D01*
G75*
G02*
X38209448Y-53149055I-115266J271549D01*
G01*
G37*
G36*
G01*
X37040407Y-53645283D02*
X36348813Y-52015989D01*
G75*
G02*
X36505096Y-51629174I271549J115266D01*
G01*
X36505096Y-51629174D01*
G75*
G02*
X36891911Y-51785457I115266J-271549D01*
G01*
X37583505Y-53414751D01*
G75*
G02*
X37427222Y-53801566I-271549J-115266D01*
G01*
X37427222Y-53801566D01*
G75*
G02*
X37040407Y-53645283I-115266J271549D01*
G01*
G37*
G36*
G01*
X35871365Y-54141512D02*
X35179771Y-52512218D01*
G75*
G02*
X35336054Y-52125403I271549J115266D01*
G01*
X35336054Y-52125403D01*
G75*
G02*
X35722869Y-52281686I115266J-271549D01*
G01*
X36414463Y-53910980D01*
G75*
G02*
X36258180Y-54297795I-271549J-115266D01*
G01*
X36258180Y-54297795D01*
G75*
G02*
X35871365Y-54141512I-115266J271549D01*
G01*
G37*
G36*
G01*
X34702324Y-54637740D02*
X34010730Y-53008446D01*
G75*
G02*
X34167013Y-52621631I271549J115266D01*
G01*
X34167013Y-52621631D01*
G75*
G02*
X34553828Y-52777914I115266J-271549D01*
G01*
X35245422Y-54407208D01*
G75*
G02*
X35089139Y-54794023I-271549J-115266D01*
G01*
X35089139Y-54794023D01*
G75*
G02*
X34702324Y-54637740I-115266J271549D01*
G01*
G37*
G36*
G01*
X33533283Y-55133969D02*
X32841689Y-53504675D01*
G75*
G02*
X32997972Y-53117860I271549J115266D01*
G01*
X32997972Y-53117860D01*
G75*
G02*
X33384787Y-53274143I115266J-271549D01*
G01*
X34076381Y-54903437D01*
G75*
G02*
X33920098Y-55290252I-271549J-115266D01*
G01*
X33920098Y-55290252D01*
G75*
G02*
X33533283Y-55133969I-115266J271549D01*
G01*
G37*
G36*
G01*
X32364242Y-55630197D02*
X31672648Y-54000903D01*
G75*
G02*
X31828931Y-53614088I271549J115266D01*
G01*
X31828931Y-53614088D01*
G75*
G02*
X32215746Y-53770371I115266J-271549D01*
G01*
X32907340Y-55399665D01*
G75*
G02*
X32751057Y-55786480I-271549J-115266D01*
G01*
X32751057Y-55786480D01*
G75*
G02*
X32364242Y-55630197I-115266J271549D01*
G01*
G37*
G36*
G01*
X31195201Y-56126426D02*
X30503607Y-54497132D01*
G75*
G02*
X30659890Y-54110317I271549J115266D01*
G01*
X30659890Y-54110317D01*
G75*
G02*
X31046705Y-54266600I115266J-271549D01*
G01*
X31738299Y-55895894D01*
G75*
G02*
X31582016Y-56282709I-271549J-115266D01*
G01*
X31582016Y-56282709D01*
G75*
G02*
X31195201Y-56126426I-115266J271549D01*
G01*
G37*
G36*
G01*
X30026160Y-56622654D02*
X29334566Y-54993360D01*
G75*
G02*
X29490849Y-54606545I271549J115266D01*
G01*
X29490849Y-54606545D01*
G75*
G02*
X29877664Y-54762828I115266J-271549D01*
G01*
X30569258Y-56392122D01*
G75*
G02*
X30412975Y-56778937I-271549J-115266D01*
G01*
X30412975Y-56778937D01*
G75*
G02*
X30026160Y-56622654I-115266J271549D01*
G01*
G37*
G36*
G01*
X28857118Y-57118883D02*
X28165524Y-55489589D01*
G75*
G02*
X28321807Y-55102774I271549J115266D01*
G01*
X28321807Y-55102774D01*
G75*
G02*
X28708622Y-55259057I115266J-271549D01*
G01*
X29400216Y-56888351D01*
G75*
G02*
X29243933Y-57275166I-271549J-115266D01*
G01*
X29243933Y-57275166D01*
G75*
G02*
X28857118Y-57118883I-115266J271549D01*
G01*
G37*
G36*
G01*
X27688077Y-57615112D02*
X26996483Y-55985818D01*
G75*
G02*
X27152766Y-55599003I271549J115266D01*
G01*
X27152766Y-55599003D01*
G75*
G02*
X27539581Y-55755286I115266J-271549D01*
G01*
X28231175Y-57384580D01*
G75*
G02*
X28074892Y-57771395I-271549J-115266D01*
G01*
X28074892Y-57771395D01*
G75*
G02*
X27688077Y-57615112I-115266J271549D01*
G01*
G37*
G36*
G01*
X26519036Y-58111340D02*
X25827442Y-56482046D01*
G75*
G02*
X25983725Y-56095231I271549J115266D01*
G01*
X25983725Y-56095231D01*
G75*
G02*
X26370540Y-56251514I115266J-271549D01*
G01*
X27062134Y-57880808D01*
G75*
G02*
X26905851Y-58267623I-271549J-115266D01*
G01*
X26905851Y-58267623D01*
G75*
G02*
X26519036Y-58111340I-115266J271549D01*
G01*
G37*
G36*
G01*
X25349995Y-58607569D02*
X24658401Y-56978275D01*
G75*
G02*
X24814684Y-56591460I271549J115266D01*
G01*
X24814684Y-56591460D01*
G75*
G02*
X25201499Y-56747743I115266J-271549D01*
G01*
X25893093Y-58377037D01*
G75*
G02*
X25736810Y-58763852I-271549J-115266D01*
G01*
X25736810Y-58763852D01*
G75*
G02*
X25349995Y-58607569I-115266J271549D01*
G01*
G37*
%TD*%
D13*
%TO.C,J3*%
X358750000Y-135955000D03*
X357950000Y-135955000D03*
X353050000Y-135955000D03*
X352250000Y-135955000D03*
X352250000Y-135955000D03*
X353050000Y-135955000D03*
X357950000Y-135955000D03*
X358750000Y-135955000D03*
D14*
X353750000Y-135955000D03*
X354250000Y-135955000D03*
X354750000Y-135955000D03*
X355750000Y-135955000D03*
X356250000Y-135955000D03*
X356750000Y-135955000D03*
X357250000Y-135955000D03*
X355250000Y-135955000D03*
%TD*%
%TO.C,R9*%
G36*
G01*
X373750000Y-82450001D02*
X373750000Y-81549999D01*
G75*
G02*
X373999999Y-81300000I249999J0D01*
G01*
X374700001Y-81300000D01*
G75*
G02*
X374950000Y-81549999I0J-249999D01*
G01*
X374950000Y-82450001D01*
G75*
G02*
X374700001Y-82700000I-249999J0D01*
G01*
X373999999Y-82700000D01*
G75*
G02*
X373750000Y-82450001I0J249999D01*
G01*
G37*
G36*
G01*
X371750000Y-82450001D02*
X371750000Y-81549999D01*
G75*
G02*
X371999999Y-81300000I249999J0D01*
G01*
X372700001Y-81300000D01*
G75*
G02*
X372950000Y-81549999I0J-249999D01*
G01*
X372950000Y-82450001D01*
G75*
G02*
X372700001Y-82700000I-249999J0D01*
G01*
X371999999Y-82700000D01*
G75*
G02*
X371750000Y-82450001I0J249999D01*
G01*
G37*
%TD*%
%TO.C,R8*%
G36*
G01*
X357799999Y-72150000D02*
X358700001Y-72150000D01*
G75*
G02*
X358950000Y-72399999I0J-249999D01*
G01*
X358950000Y-73100001D01*
G75*
G02*
X358700001Y-73350000I-249999J0D01*
G01*
X357799999Y-73350000D01*
G75*
G02*
X357550000Y-73100001I0J249999D01*
G01*
X357550000Y-72399999D01*
G75*
G02*
X357799999Y-72150000I249999J0D01*
G01*
G37*
G36*
G01*
X357799999Y-70150000D02*
X358700001Y-70150000D01*
G75*
G02*
X358950000Y-70399999I0J-249999D01*
G01*
X358950000Y-71100001D01*
G75*
G02*
X358700001Y-71350000I-249999J0D01*
G01*
X357799999Y-71350000D01*
G75*
G02*
X357550000Y-71100001I0J249999D01*
G01*
X357550000Y-70399999D01*
G75*
G02*
X357799999Y-70150000I249999J0D01*
G01*
G37*
%TD*%
D15*
%TO.C,D2*%
X350500000Y-71000000D03*
X350500000Y-74300000D03*
%TD*%
%TO.C,C25*%
G36*
G01*
X357300000Y-69175000D02*
X357300000Y-68225000D01*
G75*
G02*
X357550000Y-67975000I250000J0D01*
G01*
X358225000Y-67975000D01*
G75*
G02*
X358475000Y-68225000I0J-250000D01*
G01*
X358475000Y-69175000D01*
G75*
G02*
X358225000Y-69425000I-250000J0D01*
G01*
X357550000Y-69425000D01*
G75*
G02*
X357300000Y-69175000I0J250000D01*
G01*
G37*
G36*
G01*
X355225000Y-69175000D02*
X355225000Y-68225000D01*
G75*
G02*
X355475000Y-67975000I250000J0D01*
G01*
X356150000Y-67975000D01*
G75*
G02*
X356400000Y-68225000I0J-250000D01*
G01*
X356400000Y-69175000D01*
G75*
G02*
X356150000Y-69425000I-250000J0D01*
G01*
X355475000Y-69425000D01*
G75*
G02*
X355225000Y-69175000I0J250000D01*
G01*
G37*
%TD*%
%TO.C,C24*%
G36*
G01*
X352050000Y-104475000D02*
X352050000Y-103525000D01*
G75*
G02*
X352300000Y-103275000I250000J0D01*
G01*
X352975000Y-103275000D01*
G75*
G02*
X353225000Y-103525000I0J-250000D01*
G01*
X353225000Y-104475000D01*
G75*
G02*
X352975000Y-104725000I-250000J0D01*
G01*
X352300000Y-104725000D01*
G75*
G02*
X352050000Y-104475000I0J250000D01*
G01*
G37*
G36*
G01*
X349975000Y-104475000D02*
X349975000Y-103525000D01*
G75*
G02*
X350225000Y-103275000I250000J0D01*
G01*
X350900000Y-103275000D01*
G75*
G02*
X351150000Y-103525000I0J-250000D01*
G01*
X351150000Y-104475000D01*
G75*
G02*
X350900000Y-104725000I-250000J0D01*
G01*
X350225000Y-104725000D01*
G75*
G02*
X349975000Y-104475000I0J250000D01*
G01*
G37*
%TD*%
%TO.C,C23*%
G36*
G01*
X357515000Y-104230000D02*
X358465000Y-104230000D01*
G75*
G02*
X358715000Y-104480000I0J-250000D01*
G01*
X358715000Y-105155000D01*
G75*
G02*
X358465000Y-105405000I-250000J0D01*
G01*
X357515000Y-105405000D01*
G75*
G02*
X357265000Y-105155000I0J250000D01*
G01*
X357265000Y-104480000D01*
G75*
G02*
X357515000Y-104230000I250000J0D01*
G01*
G37*
G36*
G01*
X357515000Y-102155000D02*
X358465000Y-102155000D01*
G75*
G02*
X358715000Y-102405000I0J-250000D01*
G01*
X358715000Y-103080000D01*
G75*
G02*
X358465000Y-103330000I-250000J0D01*
G01*
X357515000Y-103330000D01*
G75*
G02*
X357265000Y-103080000I0J250000D01*
G01*
X357265000Y-102405000D01*
G75*
G02*
X357515000Y-102155000I250000J0D01*
G01*
G37*
%TD*%
D16*
%TO.C,Y2*%
X363500000Y-97700000D03*
X368700000Y-97700000D03*
%TD*%
D17*
%TO.C,Y1*%
X372400000Y-97950000D03*
X372400000Y-100450000D03*
%TD*%
D18*
%TO.C,U13*%
X365930000Y-30600000D03*
X365930000Y-31250000D03*
X365930000Y-31900000D03*
X363270000Y-31900000D03*
X363270000Y-31250000D03*
X363270000Y-30600000D03*
%TD*%
%TO.C,U12*%
G36*
G01*
X356225000Y-101125000D02*
X356425000Y-101125000D01*
G75*
G02*
X356525000Y-101225000I0J-100000D01*
G01*
X356525000Y-102500000D01*
G75*
G02*
X356425000Y-102600000I-100000J0D01*
G01*
X356225000Y-102600000D01*
G75*
G02*
X356125000Y-102500000I0J100000D01*
G01*
X356125000Y-101225000D01*
G75*
G02*
X356225000Y-101125000I100000J0D01*
G01*
G37*
G36*
G01*
X355575000Y-101125000D02*
X355775000Y-101125000D01*
G75*
G02*
X355875000Y-101225000I0J-100000D01*
G01*
X355875000Y-102500000D01*
G75*
G02*
X355775000Y-102600000I-100000J0D01*
G01*
X355575000Y-102600000D01*
G75*
G02*
X355475000Y-102500000I0J100000D01*
G01*
X355475000Y-101225000D01*
G75*
G02*
X355575000Y-101125000I100000J0D01*
G01*
G37*
G36*
G01*
X354925000Y-101125000D02*
X355125000Y-101125000D01*
G75*
G02*
X355225000Y-101225000I0J-100000D01*
G01*
X355225000Y-102500000D01*
G75*
G02*
X355125000Y-102600000I-100000J0D01*
G01*
X354925000Y-102600000D01*
G75*
G02*
X354825000Y-102500000I0J100000D01*
G01*
X354825000Y-101225000D01*
G75*
G02*
X354925000Y-101125000I100000J0D01*
G01*
G37*
G36*
G01*
X354275000Y-101125000D02*
X354475000Y-101125000D01*
G75*
G02*
X354575000Y-101225000I0J-100000D01*
G01*
X354575000Y-102500000D01*
G75*
G02*
X354475000Y-102600000I-100000J0D01*
G01*
X354275000Y-102600000D01*
G75*
G02*
X354175000Y-102500000I0J100000D01*
G01*
X354175000Y-101225000D01*
G75*
G02*
X354275000Y-101125000I100000J0D01*
G01*
G37*
G36*
G01*
X353625000Y-101125000D02*
X353825000Y-101125000D01*
G75*
G02*
X353925000Y-101225000I0J-100000D01*
G01*
X353925000Y-102500000D01*
G75*
G02*
X353825000Y-102600000I-100000J0D01*
G01*
X353625000Y-102600000D01*
G75*
G02*
X353525000Y-102500000I0J100000D01*
G01*
X353525000Y-101225000D01*
G75*
G02*
X353625000Y-101125000I100000J0D01*
G01*
G37*
G36*
G01*
X352975000Y-101125000D02*
X353175000Y-101125000D01*
G75*
G02*
X353275000Y-101225000I0J-100000D01*
G01*
X353275000Y-102500000D01*
G75*
G02*
X353175000Y-102600000I-100000J0D01*
G01*
X352975000Y-102600000D01*
G75*
G02*
X352875000Y-102500000I0J100000D01*
G01*
X352875000Y-101225000D01*
G75*
G02*
X352975000Y-101125000I100000J0D01*
G01*
G37*
G36*
G01*
X352325000Y-101125000D02*
X352525000Y-101125000D01*
G75*
G02*
X352625000Y-101225000I0J-100000D01*
G01*
X352625000Y-102500000D01*
G75*
G02*
X352525000Y-102600000I-100000J0D01*
G01*
X352325000Y-102600000D01*
G75*
G02*
X352225000Y-102500000I0J100000D01*
G01*
X352225000Y-101225000D01*
G75*
G02*
X352325000Y-101125000I100000J0D01*
G01*
G37*
G36*
G01*
X351675000Y-101125000D02*
X351875000Y-101125000D01*
G75*
G02*
X351975000Y-101225000I0J-100000D01*
G01*
X351975000Y-102500000D01*
G75*
G02*
X351875000Y-102600000I-100000J0D01*
G01*
X351675000Y-102600000D01*
G75*
G02*
X351575000Y-102500000I0J100000D01*
G01*
X351575000Y-101225000D01*
G75*
G02*
X351675000Y-101125000I100000J0D01*
G01*
G37*
G36*
G01*
X351025000Y-101125000D02*
X351225000Y-101125000D01*
G75*
G02*
X351325000Y-101225000I0J-100000D01*
G01*
X351325000Y-102500000D01*
G75*
G02*
X351225000Y-102600000I-100000J0D01*
G01*
X351025000Y-102600000D01*
G75*
G02*
X350925000Y-102500000I0J100000D01*
G01*
X350925000Y-101225000D01*
G75*
G02*
X351025000Y-101125000I100000J0D01*
G01*
G37*
G36*
G01*
X350375000Y-101125000D02*
X350575000Y-101125000D01*
G75*
G02*
X350675000Y-101225000I0J-100000D01*
G01*
X350675000Y-102500000D01*
G75*
G02*
X350575000Y-102600000I-100000J0D01*
G01*
X350375000Y-102600000D01*
G75*
G02*
X350275000Y-102500000I0J100000D01*
G01*
X350275000Y-101225000D01*
G75*
G02*
X350375000Y-101125000I100000J0D01*
G01*
G37*
G36*
G01*
X350375000Y-95400000D02*
X350575000Y-95400000D01*
G75*
G02*
X350675000Y-95500000I0J-100000D01*
G01*
X350675000Y-96775000D01*
G75*
G02*
X350575000Y-96875000I-100000J0D01*
G01*
X350375000Y-96875000D01*
G75*
G02*
X350275000Y-96775000I0J100000D01*
G01*
X350275000Y-95500000D01*
G75*
G02*
X350375000Y-95400000I100000J0D01*
G01*
G37*
G36*
G01*
X351025000Y-95400000D02*
X351225000Y-95400000D01*
G75*
G02*
X351325000Y-95500000I0J-100000D01*
G01*
X351325000Y-96775000D01*
G75*
G02*
X351225000Y-96875000I-100000J0D01*
G01*
X351025000Y-96875000D01*
G75*
G02*
X350925000Y-96775000I0J100000D01*
G01*
X350925000Y-95500000D01*
G75*
G02*
X351025000Y-95400000I100000J0D01*
G01*
G37*
G36*
G01*
X351675000Y-95400000D02*
X351875000Y-95400000D01*
G75*
G02*
X351975000Y-95500000I0J-100000D01*
G01*
X351975000Y-96775000D01*
G75*
G02*
X351875000Y-96875000I-100000J0D01*
G01*
X351675000Y-96875000D01*
G75*
G02*
X351575000Y-96775000I0J100000D01*
G01*
X351575000Y-95500000D01*
G75*
G02*
X351675000Y-95400000I100000J0D01*
G01*
G37*
G36*
G01*
X352325000Y-95400000D02*
X352525000Y-95400000D01*
G75*
G02*
X352625000Y-95500000I0J-100000D01*
G01*
X352625000Y-96775000D01*
G75*
G02*
X352525000Y-96875000I-100000J0D01*
G01*
X352325000Y-96875000D01*
G75*
G02*
X352225000Y-96775000I0J100000D01*
G01*
X352225000Y-95500000D01*
G75*
G02*
X352325000Y-95400000I100000J0D01*
G01*
G37*
G36*
G01*
X352975000Y-95400000D02*
X353175000Y-95400000D01*
G75*
G02*
X353275000Y-95500000I0J-100000D01*
G01*
X353275000Y-96775000D01*
G75*
G02*
X353175000Y-96875000I-100000J0D01*
G01*
X352975000Y-96875000D01*
G75*
G02*
X352875000Y-96775000I0J100000D01*
G01*
X352875000Y-95500000D01*
G75*
G02*
X352975000Y-95400000I100000J0D01*
G01*
G37*
G36*
G01*
X353625000Y-95400000D02*
X353825000Y-95400000D01*
G75*
G02*
X353925000Y-95500000I0J-100000D01*
G01*
X353925000Y-96775000D01*
G75*
G02*
X353825000Y-96875000I-100000J0D01*
G01*
X353625000Y-96875000D01*
G75*
G02*
X353525000Y-96775000I0J100000D01*
G01*
X353525000Y-95500000D01*
G75*
G02*
X353625000Y-95400000I100000J0D01*
G01*
G37*
G36*
G01*
X354275000Y-95400000D02*
X354475000Y-95400000D01*
G75*
G02*
X354575000Y-95500000I0J-100000D01*
G01*
X354575000Y-96775000D01*
G75*
G02*
X354475000Y-96875000I-100000J0D01*
G01*
X354275000Y-96875000D01*
G75*
G02*
X354175000Y-96775000I0J100000D01*
G01*
X354175000Y-95500000D01*
G75*
G02*
X354275000Y-95400000I100000J0D01*
G01*
G37*
G36*
G01*
X354925000Y-95400000D02*
X355125000Y-95400000D01*
G75*
G02*
X355225000Y-95500000I0J-100000D01*
G01*
X355225000Y-96775000D01*
G75*
G02*
X355125000Y-96875000I-100000J0D01*
G01*
X354925000Y-96875000D01*
G75*
G02*
X354825000Y-96775000I0J100000D01*
G01*
X354825000Y-95500000D01*
G75*
G02*
X354925000Y-95400000I100000J0D01*
G01*
G37*
G36*
G01*
X355575000Y-95400000D02*
X355775000Y-95400000D01*
G75*
G02*
X355875000Y-95500000I0J-100000D01*
G01*
X355875000Y-96775000D01*
G75*
G02*
X355775000Y-96875000I-100000J0D01*
G01*
X355575000Y-96875000D01*
G75*
G02*
X355475000Y-96775000I0J100000D01*
G01*
X355475000Y-95500000D01*
G75*
G02*
X355575000Y-95400000I100000J0D01*
G01*
G37*
G36*
G01*
X356225000Y-95400000D02*
X356425000Y-95400000D01*
G75*
G02*
X356525000Y-95500000I0J-100000D01*
G01*
X356525000Y-96775000D01*
G75*
G02*
X356425000Y-96875000I-100000J0D01*
G01*
X356225000Y-96875000D01*
G75*
G02*
X356125000Y-96775000I0J100000D01*
G01*
X356125000Y-95500000D01*
G75*
G02*
X356225000Y-95400000I100000J0D01*
G01*
G37*
%TD*%
%TO.C,U11*%
G36*
G01*
X350575000Y-107075000D02*
X350375000Y-107075000D01*
G75*
G02*
X350275000Y-106975000I0J100000D01*
G01*
X350275000Y-105700000D01*
G75*
G02*
X350375000Y-105600000I100000J0D01*
G01*
X350575000Y-105600000D01*
G75*
G02*
X350675000Y-105700000I0J-100000D01*
G01*
X350675000Y-106975000D01*
G75*
G02*
X350575000Y-107075000I-100000J0D01*
G01*
G37*
G36*
G01*
X351225000Y-107075000D02*
X351025000Y-107075000D01*
G75*
G02*
X350925000Y-106975000I0J100000D01*
G01*
X350925000Y-105700000D01*
G75*
G02*
X351025000Y-105600000I100000J0D01*
G01*
X351225000Y-105600000D01*
G75*
G02*
X351325000Y-105700000I0J-100000D01*
G01*
X351325000Y-106975000D01*
G75*
G02*
X351225000Y-107075000I-100000J0D01*
G01*
G37*
G36*
G01*
X351875000Y-107075000D02*
X351675000Y-107075000D01*
G75*
G02*
X351575000Y-106975000I0J100000D01*
G01*
X351575000Y-105700000D01*
G75*
G02*
X351675000Y-105600000I100000J0D01*
G01*
X351875000Y-105600000D01*
G75*
G02*
X351975000Y-105700000I0J-100000D01*
G01*
X351975000Y-106975000D01*
G75*
G02*
X351875000Y-107075000I-100000J0D01*
G01*
G37*
G36*
G01*
X352525000Y-107075000D02*
X352325000Y-107075000D01*
G75*
G02*
X352225000Y-106975000I0J100000D01*
G01*
X352225000Y-105700000D01*
G75*
G02*
X352325000Y-105600000I100000J0D01*
G01*
X352525000Y-105600000D01*
G75*
G02*
X352625000Y-105700000I0J-100000D01*
G01*
X352625000Y-106975000D01*
G75*
G02*
X352525000Y-107075000I-100000J0D01*
G01*
G37*
G36*
G01*
X353175000Y-107075000D02*
X352975000Y-107075000D01*
G75*
G02*
X352875000Y-106975000I0J100000D01*
G01*
X352875000Y-105700000D01*
G75*
G02*
X352975000Y-105600000I100000J0D01*
G01*
X353175000Y-105600000D01*
G75*
G02*
X353275000Y-105700000I0J-100000D01*
G01*
X353275000Y-106975000D01*
G75*
G02*
X353175000Y-107075000I-100000J0D01*
G01*
G37*
G36*
G01*
X353825000Y-107075000D02*
X353625000Y-107075000D01*
G75*
G02*
X353525000Y-106975000I0J100000D01*
G01*
X353525000Y-105700000D01*
G75*
G02*
X353625000Y-105600000I100000J0D01*
G01*
X353825000Y-105600000D01*
G75*
G02*
X353925000Y-105700000I0J-100000D01*
G01*
X353925000Y-106975000D01*
G75*
G02*
X353825000Y-107075000I-100000J0D01*
G01*
G37*
G36*
G01*
X354475000Y-107075000D02*
X354275000Y-107075000D01*
G75*
G02*
X354175000Y-106975000I0J100000D01*
G01*
X354175000Y-105700000D01*
G75*
G02*
X354275000Y-105600000I100000J0D01*
G01*
X354475000Y-105600000D01*
G75*
G02*
X354575000Y-105700000I0J-100000D01*
G01*
X354575000Y-106975000D01*
G75*
G02*
X354475000Y-107075000I-100000J0D01*
G01*
G37*
G36*
G01*
X355125000Y-107075000D02*
X354925000Y-107075000D01*
G75*
G02*
X354825000Y-106975000I0J100000D01*
G01*
X354825000Y-105700000D01*
G75*
G02*
X354925000Y-105600000I100000J0D01*
G01*
X355125000Y-105600000D01*
G75*
G02*
X355225000Y-105700000I0J-100000D01*
G01*
X355225000Y-106975000D01*
G75*
G02*
X355125000Y-107075000I-100000J0D01*
G01*
G37*
G36*
G01*
X355775000Y-107075000D02*
X355575000Y-107075000D01*
G75*
G02*
X355475000Y-106975000I0J100000D01*
G01*
X355475000Y-105700000D01*
G75*
G02*
X355575000Y-105600000I100000J0D01*
G01*
X355775000Y-105600000D01*
G75*
G02*
X355875000Y-105700000I0J-100000D01*
G01*
X355875000Y-106975000D01*
G75*
G02*
X355775000Y-107075000I-100000J0D01*
G01*
G37*
G36*
G01*
X356425000Y-107075000D02*
X356225000Y-107075000D01*
G75*
G02*
X356125000Y-106975000I0J100000D01*
G01*
X356125000Y-105700000D01*
G75*
G02*
X356225000Y-105600000I100000J0D01*
G01*
X356425000Y-105600000D01*
G75*
G02*
X356525000Y-105700000I0J-100000D01*
G01*
X356525000Y-106975000D01*
G75*
G02*
X356425000Y-107075000I-100000J0D01*
G01*
G37*
G36*
G01*
X356425000Y-112800000D02*
X356225000Y-112800000D01*
G75*
G02*
X356125000Y-112700000I0J100000D01*
G01*
X356125000Y-111425000D01*
G75*
G02*
X356225000Y-111325000I100000J0D01*
G01*
X356425000Y-111325000D01*
G75*
G02*
X356525000Y-111425000I0J-100000D01*
G01*
X356525000Y-112700000D01*
G75*
G02*
X356425000Y-112800000I-100000J0D01*
G01*
G37*
G36*
G01*
X355775000Y-112800000D02*
X355575000Y-112800000D01*
G75*
G02*
X355475000Y-112700000I0J100000D01*
G01*
X355475000Y-111425000D01*
G75*
G02*
X355575000Y-111325000I100000J0D01*
G01*
X355775000Y-111325000D01*
G75*
G02*
X355875000Y-111425000I0J-100000D01*
G01*
X355875000Y-112700000D01*
G75*
G02*
X355775000Y-112800000I-100000J0D01*
G01*
G37*
G36*
G01*
X355125000Y-112800000D02*
X354925000Y-112800000D01*
G75*
G02*
X354825000Y-112700000I0J100000D01*
G01*
X354825000Y-111425000D01*
G75*
G02*
X354925000Y-111325000I100000J0D01*
G01*
X355125000Y-111325000D01*
G75*
G02*
X355225000Y-111425000I0J-100000D01*
G01*
X355225000Y-112700000D01*
G75*
G02*
X355125000Y-112800000I-100000J0D01*
G01*
G37*
G36*
G01*
X354475000Y-112800000D02*
X354275000Y-112800000D01*
G75*
G02*
X354175000Y-112700000I0J100000D01*
G01*
X354175000Y-111425000D01*
G75*
G02*
X354275000Y-111325000I100000J0D01*
G01*
X354475000Y-111325000D01*
G75*
G02*
X354575000Y-111425000I0J-100000D01*
G01*
X354575000Y-112700000D01*
G75*
G02*
X354475000Y-112800000I-100000J0D01*
G01*
G37*
G36*
G01*
X353825000Y-112800000D02*
X353625000Y-112800000D01*
G75*
G02*
X353525000Y-112700000I0J100000D01*
G01*
X353525000Y-111425000D01*
G75*
G02*
X353625000Y-111325000I100000J0D01*
G01*
X353825000Y-111325000D01*
G75*
G02*
X353925000Y-111425000I0J-100000D01*
G01*
X353925000Y-112700000D01*
G75*
G02*
X353825000Y-112800000I-100000J0D01*
G01*
G37*
G36*
G01*
X353175000Y-112800000D02*
X352975000Y-112800000D01*
G75*
G02*
X352875000Y-112700000I0J100000D01*
G01*
X352875000Y-111425000D01*
G75*
G02*
X352975000Y-111325000I100000J0D01*
G01*
X353175000Y-111325000D01*
G75*
G02*
X353275000Y-111425000I0J-100000D01*
G01*
X353275000Y-112700000D01*
G75*
G02*
X353175000Y-112800000I-100000J0D01*
G01*
G37*
G36*
G01*
X352525000Y-112800000D02*
X352325000Y-112800000D01*
G75*
G02*
X352225000Y-112700000I0J100000D01*
G01*
X352225000Y-111425000D01*
G75*
G02*
X352325000Y-111325000I100000J0D01*
G01*
X352525000Y-111325000D01*
G75*
G02*
X352625000Y-111425000I0J-100000D01*
G01*
X352625000Y-112700000D01*
G75*
G02*
X352525000Y-112800000I-100000J0D01*
G01*
G37*
G36*
G01*
X351875000Y-112800000D02*
X351675000Y-112800000D01*
G75*
G02*
X351575000Y-112700000I0J100000D01*
G01*
X351575000Y-111425000D01*
G75*
G02*
X351675000Y-111325000I100000J0D01*
G01*
X351875000Y-111325000D01*
G75*
G02*
X351975000Y-111425000I0J-100000D01*
G01*
X351975000Y-112700000D01*
G75*
G02*
X351875000Y-112800000I-100000J0D01*
G01*
G37*
G36*
G01*
X351225000Y-112800000D02*
X351025000Y-112800000D01*
G75*
G02*
X350925000Y-112700000I0J100000D01*
G01*
X350925000Y-111425000D01*
G75*
G02*
X351025000Y-111325000I100000J0D01*
G01*
X351225000Y-111325000D01*
G75*
G02*
X351325000Y-111425000I0J-100000D01*
G01*
X351325000Y-112700000D01*
G75*
G02*
X351225000Y-112800000I-100000J0D01*
G01*
G37*
G36*
G01*
X350575000Y-112800000D02*
X350375000Y-112800000D01*
G75*
G02*
X350275000Y-112700000I0J100000D01*
G01*
X350275000Y-111425000D01*
G75*
G02*
X350375000Y-111325000I100000J0D01*
G01*
X350575000Y-111325000D01*
G75*
G02*
X350675000Y-111425000I0J-100000D01*
G01*
X350675000Y-112700000D01*
G75*
G02*
X350575000Y-112800000I-100000J0D01*
G01*
G37*
%TD*%
%TO.C,U10*%
G36*
G01*
X369600000Y-102800000D02*
X370925000Y-102800000D01*
G75*
G02*
X371000000Y-102875000I0J-75000D01*
G01*
X371000000Y-103025000D01*
G75*
G02*
X370925000Y-103100000I-75000J0D01*
G01*
X369600000Y-103100000D01*
G75*
G02*
X369525000Y-103025000I0J75000D01*
G01*
X369525000Y-102875000D01*
G75*
G02*
X369600000Y-102800000I75000J0D01*
G01*
G37*
G36*
G01*
X369600000Y-103300000D02*
X370925000Y-103300000D01*
G75*
G02*
X371000000Y-103375000I0J-75000D01*
G01*
X371000000Y-103525000D01*
G75*
G02*
X370925000Y-103600000I-75000J0D01*
G01*
X369600000Y-103600000D01*
G75*
G02*
X369525000Y-103525000I0J75000D01*
G01*
X369525000Y-103375000D01*
G75*
G02*
X369600000Y-103300000I75000J0D01*
G01*
G37*
G36*
G01*
X369600000Y-103800000D02*
X370925000Y-103800000D01*
G75*
G02*
X371000000Y-103875000I0J-75000D01*
G01*
X371000000Y-104025000D01*
G75*
G02*
X370925000Y-104100000I-75000J0D01*
G01*
X369600000Y-104100000D01*
G75*
G02*
X369525000Y-104025000I0J75000D01*
G01*
X369525000Y-103875000D01*
G75*
G02*
X369600000Y-103800000I75000J0D01*
G01*
G37*
G36*
G01*
X369600000Y-104300000D02*
X370925000Y-104300000D01*
G75*
G02*
X371000000Y-104375000I0J-75000D01*
G01*
X371000000Y-104525000D01*
G75*
G02*
X370925000Y-104600000I-75000J0D01*
G01*
X369600000Y-104600000D01*
G75*
G02*
X369525000Y-104525000I0J75000D01*
G01*
X369525000Y-104375000D01*
G75*
G02*
X369600000Y-104300000I75000J0D01*
G01*
G37*
G36*
G01*
X369600000Y-104800000D02*
X370925000Y-104800000D01*
G75*
G02*
X371000000Y-104875000I0J-75000D01*
G01*
X371000000Y-105025000D01*
G75*
G02*
X370925000Y-105100000I-75000J0D01*
G01*
X369600000Y-105100000D01*
G75*
G02*
X369525000Y-105025000I0J75000D01*
G01*
X369525000Y-104875000D01*
G75*
G02*
X369600000Y-104800000I75000J0D01*
G01*
G37*
G36*
G01*
X369600000Y-105300000D02*
X370925000Y-105300000D01*
G75*
G02*
X371000000Y-105375000I0J-75000D01*
G01*
X371000000Y-105525000D01*
G75*
G02*
X370925000Y-105600000I-75000J0D01*
G01*
X369600000Y-105600000D01*
G75*
G02*
X369525000Y-105525000I0J75000D01*
G01*
X369525000Y-105375000D01*
G75*
G02*
X369600000Y-105300000I75000J0D01*
G01*
G37*
G36*
G01*
X369600000Y-105800000D02*
X370925000Y-105800000D01*
G75*
G02*
X371000000Y-105875000I0J-75000D01*
G01*
X371000000Y-106025000D01*
G75*
G02*
X370925000Y-106100000I-75000J0D01*
G01*
X369600000Y-106100000D01*
G75*
G02*
X369525000Y-106025000I0J75000D01*
G01*
X369525000Y-105875000D01*
G75*
G02*
X369600000Y-105800000I75000J0D01*
G01*
G37*
G36*
G01*
X369600000Y-106300000D02*
X370925000Y-106300000D01*
G75*
G02*
X371000000Y-106375000I0J-75000D01*
G01*
X371000000Y-106525000D01*
G75*
G02*
X370925000Y-106600000I-75000J0D01*
G01*
X369600000Y-106600000D01*
G75*
G02*
X369525000Y-106525000I0J75000D01*
G01*
X369525000Y-106375000D01*
G75*
G02*
X369600000Y-106300000I75000J0D01*
G01*
G37*
G36*
G01*
X369600000Y-106800000D02*
X370925000Y-106800000D01*
G75*
G02*
X371000000Y-106875000I0J-75000D01*
G01*
X371000000Y-107025000D01*
G75*
G02*
X370925000Y-107100000I-75000J0D01*
G01*
X369600000Y-107100000D01*
G75*
G02*
X369525000Y-107025000I0J75000D01*
G01*
X369525000Y-106875000D01*
G75*
G02*
X369600000Y-106800000I75000J0D01*
G01*
G37*
G36*
G01*
X369600000Y-107300000D02*
X370925000Y-107300000D01*
G75*
G02*
X371000000Y-107375000I0J-75000D01*
G01*
X371000000Y-107525000D01*
G75*
G02*
X370925000Y-107600000I-75000J0D01*
G01*
X369600000Y-107600000D01*
G75*
G02*
X369525000Y-107525000I0J75000D01*
G01*
X369525000Y-107375000D01*
G75*
G02*
X369600000Y-107300000I75000J0D01*
G01*
G37*
G36*
G01*
X369600000Y-107800000D02*
X370925000Y-107800000D01*
G75*
G02*
X371000000Y-107875000I0J-75000D01*
G01*
X371000000Y-108025000D01*
G75*
G02*
X370925000Y-108100000I-75000J0D01*
G01*
X369600000Y-108100000D01*
G75*
G02*
X369525000Y-108025000I0J75000D01*
G01*
X369525000Y-107875000D01*
G75*
G02*
X369600000Y-107800000I75000J0D01*
G01*
G37*
G36*
G01*
X369600000Y-108300000D02*
X370925000Y-108300000D01*
G75*
G02*
X371000000Y-108375000I0J-75000D01*
G01*
X371000000Y-108525000D01*
G75*
G02*
X370925000Y-108600000I-75000J0D01*
G01*
X369600000Y-108600000D01*
G75*
G02*
X369525000Y-108525000I0J75000D01*
G01*
X369525000Y-108375000D01*
G75*
G02*
X369600000Y-108300000I75000J0D01*
G01*
G37*
G36*
G01*
X368775000Y-109125000D02*
X368925000Y-109125000D01*
G75*
G02*
X369000000Y-109200000I0J-75000D01*
G01*
X369000000Y-110525000D01*
G75*
G02*
X368925000Y-110600000I-75000J0D01*
G01*
X368775000Y-110600000D01*
G75*
G02*
X368700000Y-110525000I0J75000D01*
G01*
X368700000Y-109200000D01*
G75*
G02*
X368775000Y-109125000I75000J0D01*
G01*
G37*
G36*
G01*
X368275000Y-109125000D02*
X368425000Y-109125000D01*
G75*
G02*
X368500000Y-109200000I0J-75000D01*
G01*
X368500000Y-110525000D01*
G75*
G02*
X368425000Y-110600000I-75000J0D01*
G01*
X368275000Y-110600000D01*
G75*
G02*
X368200000Y-110525000I0J75000D01*
G01*
X368200000Y-109200000D01*
G75*
G02*
X368275000Y-109125000I75000J0D01*
G01*
G37*
G36*
G01*
X367775000Y-109125000D02*
X367925000Y-109125000D01*
G75*
G02*
X368000000Y-109200000I0J-75000D01*
G01*
X368000000Y-110525000D01*
G75*
G02*
X367925000Y-110600000I-75000J0D01*
G01*
X367775000Y-110600000D01*
G75*
G02*
X367700000Y-110525000I0J75000D01*
G01*
X367700000Y-109200000D01*
G75*
G02*
X367775000Y-109125000I75000J0D01*
G01*
G37*
G36*
G01*
X367275000Y-109125000D02*
X367425000Y-109125000D01*
G75*
G02*
X367500000Y-109200000I0J-75000D01*
G01*
X367500000Y-110525000D01*
G75*
G02*
X367425000Y-110600000I-75000J0D01*
G01*
X367275000Y-110600000D01*
G75*
G02*
X367200000Y-110525000I0J75000D01*
G01*
X367200000Y-109200000D01*
G75*
G02*
X367275000Y-109125000I75000J0D01*
G01*
G37*
G36*
G01*
X366775000Y-109125000D02*
X366925000Y-109125000D01*
G75*
G02*
X367000000Y-109200000I0J-75000D01*
G01*
X367000000Y-110525000D01*
G75*
G02*
X366925000Y-110600000I-75000J0D01*
G01*
X366775000Y-110600000D01*
G75*
G02*
X366700000Y-110525000I0J75000D01*
G01*
X366700000Y-109200000D01*
G75*
G02*
X366775000Y-109125000I75000J0D01*
G01*
G37*
G36*
G01*
X366275000Y-109125000D02*
X366425000Y-109125000D01*
G75*
G02*
X366500000Y-109200000I0J-75000D01*
G01*
X366500000Y-110525000D01*
G75*
G02*
X366425000Y-110600000I-75000J0D01*
G01*
X366275000Y-110600000D01*
G75*
G02*
X366200000Y-110525000I0J75000D01*
G01*
X366200000Y-109200000D01*
G75*
G02*
X366275000Y-109125000I75000J0D01*
G01*
G37*
G36*
G01*
X365775000Y-109125000D02*
X365925000Y-109125000D01*
G75*
G02*
X366000000Y-109200000I0J-75000D01*
G01*
X366000000Y-110525000D01*
G75*
G02*
X365925000Y-110600000I-75000J0D01*
G01*
X365775000Y-110600000D01*
G75*
G02*
X365700000Y-110525000I0J75000D01*
G01*
X365700000Y-109200000D01*
G75*
G02*
X365775000Y-109125000I75000J0D01*
G01*
G37*
G36*
G01*
X365275000Y-109125000D02*
X365425000Y-109125000D01*
G75*
G02*
X365500000Y-109200000I0J-75000D01*
G01*
X365500000Y-110525000D01*
G75*
G02*
X365425000Y-110600000I-75000J0D01*
G01*
X365275000Y-110600000D01*
G75*
G02*
X365200000Y-110525000I0J75000D01*
G01*
X365200000Y-109200000D01*
G75*
G02*
X365275000Y-109125000I75000J0D01*
G01*
G37*
G36*
G01*
X364775000Y-109125000D02*
X364925000Y-109125000D01*
G75*
G02*
X365000000Y-109200000I0J-75000D01*
G01*
X365000000Y-110525000D01*
G75*
G02*
X364925000Y-110600000I-75000J0D01*
G01*
X364775000Y-110600000D01*
G75*
G02*
X364700000Y-110525000I0J75000D01*
G01*
X364700000Y-109200000D01*
G75*
G02*
X364775000Y-109125000I75000J0D01*
G01*
G37*
G36*
G01*
X364275000Y-109125000D02*
X364425000Y-109125000D01*
G75*
G02*
X364500000Y-109200000I0J-75000D01*
G01*
X364500000Y-110525000D01*
G75*
G02*
X364425000Y-110600000I-75000J0D01*
G01*
X364275000Y-110600000D01*
G75*
G02*
X364200000Y-110525000I0J75000D01*
G01*
X364200000Y-109200000D01*
G75*
G02*
X364275000Y-109125000I75000J0D01*
G01*
G37*
G36*
G01*
X363775000Y-109125000D02*
X363925000Y-109125000D01*
G75*
G02*
X364000000Y-109200000I0J-75000D01*
G01*
X364000000Y-110525000D01*
G75*
G02*
X363925000Y-110600000I-75000J0D01*
G01*
X363775000Y-110600000D01*
G75*
G02*
X363700000Y-110525000I0J75000D01*
G01*
X363700000Y-109200000D01*
G75*
G02*
X363775000Y-109125000I75000J0D01*
G01*
G37*
G36*
G01*
X363275000Y-109125000D02*
X363425000Y-109125000D01*
G75*
G02*
X363500000Y-109200000I0J-75000D01*
G01*
X363500000Y-110525000D01*
G75*
G02*
X363425000Y-110600000I-75000J0D01*
G01*
X363275000Y-110600000D01*
G75*
G02*
X363200000Y-110525000I0J75000D01*
G01*
X363200000Y-109200000D01*
G75*
G02*
X363275000Y-109125000I75000J0D01*
G01*
G37*
G36*
G01*
X361275000Y-108300000D02*
X362600000Y-108300000D01*
G75*
G02*
X362675000Y-108375000I0J-75000D01*
G01*
X362675000Y-108525000D01*
G75*
G02*
X362600000Y-108600000I-75000J0D01*
G01*
X361275000Y-108600000D01*
G75*
G02*
X361200000Y-108525000I0J75000D01*
G01*
X361200000Y-108375000D01*
G75*
G02*
X361275000Y-108300000I75000J0D01*
G01*
G37*
G36*
G01*
X361275000Y-107800000D02*
X362600000Y-107800000D01*
G75*
G02*
X362675000Y-107875000I0J-75000D01*
G01*
X362675000Y-108025000D01*
G75*
G02*
X362600000Y-108100000I-75000J0D01*
G01*
X361275000Y-108100000D01*
G75*
G02*
X361200000Y-108025000I0J75000D01*
G01*
X361200000Y-107875000D01*
G75*
G02*
X361275000Y-107800000I75000J0D01*
G01*
G37*
G36*
G01*
X361275000Y-107300000D02*
X362600000Y-107300000D01*
G75*
G02*
X362675000Y-107375000I0J-75000D01*
G01*
X362675000Y-107525000D01*
G75*
G02*
X362600000Y-107600000I-75000J0D01*
G01*
X361275000Y-107600000D01*
G75*
G02*
X361200000Y-107525000I0J75000D01*
G01*
X361200000Y-107375000D01*
G75*
G02*
X361275000Y-107300000I75000J0D01*
G01*
G37*
G36*
G01*
X361275000Y-106800000D02*
X362600000Y-106800000D01*
G75*
G02*
X362675000Y-106875000I0J-75000D01*
G01*
X362675000Y-107025000D01*
G75*
G02*
X362600000Y-107100000I-75000J0D01*
G01*
X361275000Y-107100000D01*
G75*
G02*
X361200000Y-107025000I0J75000D01*
G01*
X361200000Y-106875000D01*
G75*
G02*
X361275000Y-106800000I75000J0D01*
G01*
G37*
G36*
G01*
X361275000Y-106300000D02*
X362600000Y-106300000D01*
G75*
G02*
X362675000Y-106375000I0J-75000D01*
G01*
X362675000Y-106525000D01*
G75*
G02*
X362600000Y-106600000I-75000J0D01*
G01*
X361275000Y-106600000D01*
G75*
G02*
X361200000Y-106525000I0J75000D01*
G01*
X361200000Y-106375000D01*
G75*
G02*
X361275000Y-106300000I75000J0D01*
G01*
G37*
G36*
G01*
X361275000Y-105800000D02*
X362600000Y-105800000D01*
G75*
G02*
X362675000Y-105875000I0J-75000D01*
G01*
X362675000Y-106025000D01*
G75*
G02*
X362600000Y-106100000I-75000J0D01*
G01*
X361275000Y-106100000D01*
G75*
G02*
X361200000Y-106025000I0J75000D01*
G01*
X361200000Y-105875000D01*
G75*
G02*
X361275000Y-105800000I75000J0D01*
G01*
G37*
G36*
G01*
X361275000Y-105300000D02*
X362600000Y-105300000D01*
G75*
G02*
X362675000Y-105375000I0J-75000D01*
G01*
X362675000Y-105525000D01*
G75*
G02*
X362600000Y-105600000I-75000J0D01*
G01*
X361275000Y-105600000D01*
G75*
G02*
X361200000Y-105525000I0J75000D01*
G01*
X361200000Y-105375000D01*
G75*
G02*
X361275000Y-105300000I75000J0D01*
G01*
G37*
G36*
G01*
X361275000Y-104800000D02*
X362600000Y-104800000D01*
G75*
G02*
X362675000Y-104875000I0J-75000D01*
G01*
X362675000Y-105025000D01*
G75*
G02*
X362600000Y-105100000I-75000J0D01*
G01*
X361275000Y-105100000D01*
G75*
G02*
X361200000Y-105025000I0J75000D01*
G01*
X361200000Y-104875000D01*
G75*
G02*
X361275000Y-104800000I75000J0D01*
G01*
G37*
G36*
G01*
X361275000Y-104300000D02*
X362600000Y-104300000D01*
G75*
G02*
X362675000Y-104375000I0J-75000D01*
G01*
X362675000Y-104525000D01*
G75*
G02*
X362600000Y-104600000I-75000J0D01*
G01*
X361275000Y-104600000D01*
G75*
G02*
X361200000Y-104525000I0J75000D01*
G01*
X361200000Y-104375000D01*
G75*
G02*
X361275000Y-104300000I75000J0D01*
G01*
G37*
G36*
G01*
X361275000Y-103800000D02*
X362600000Y-103800000D01*
G75*
G02*
X362675000Y-103875000I0J-75000D01*
G01*
X362675000Y-104025000D01*
G75*
G02*
X362600000Y-104100000I-75000J0D01*
G01*
X361275000Y-104100000D01*
G75*
G02*
X361200000Y-104025000I0J75000D01*
G01*
X361200000Y-103875000D01*
G75*
G02*
X361275000Y-103800000I75000J0D01*
G01*
G37*
G36*
G01*
X361275000Y-103300000D02*
X362600000Y-103300000D01*
G75*
G02*
X362675000Y-103375000I0J-75000D01*
G01*
X362675000Y-103525000D01*
G75*
G02*
X362600000Y-103600000I-75000J0D01*
G01*
X361275000Y-103600000D01*
G75*
G02*
X361200000Y-103525000I0J75000D01*
G01*
X361200000Y-103375000D01*
G75*
G02*
X361275000Y-103300000I75000J0D01*
G01*
G37*
G36*
G01*
X361275000Y-102800000D02*
X362600000Y-102800000D01*
G75*
G02*
X362675000Y-102875000I0J-75000D01*
G01*
X362675000Y-103025000D01*
G75*
G02*
X362600000Y-103100000I-75000J0D01*
G01*
X361275000Y-103100000D01*
G75*
G02*
X361200000Y-103025000I0J75000D01*
G01*
X361200000Y-102875000D01*
G75*
G02*
X361275000Y-102800000I75000J0D01*
G01*
G37*
G36*
G01*
X363275000Y-100800000D02*
X363425000Y-100800000D01*
G75*
G02*
X363500000Y-100875000I0J-75000D01*
G01*
X363500000Y-102200000D01*
G75*
G02*
X363425000Y-102275000I-75000J0D01*
G01*
X363275000Y-102275000D01*
G75*
G02*
X363200000Y-102200000I0J75000D01*
G01*
X363200000Y-100875000D01*
G75*
G02*
X363275000Y-100800000I75000J0D01*
G01*
G37*
G36*
G01*
X363775000Y-100800000D02*
X363925000Y-100800000D01*
G75*
G02*
X364000000Y-100875000I0J-75000D01*
G01*
X364000000Y-102200000D01*
G75*
G02*
X363925000Y-102275000I-75000J0D01*
G01*
X363775000Y-102275000D01*
G75*
G02*
X363700000Y-102200000I0J75000D01*
G01*
X363700000Y-100875000D01*
G75*
G02*
X363775000Y-100800000I75000J0D01*
G01*
G37*
G36*
G01*
X364275000Y-100800000D02*
X364425000Y-100800000D01*
G75*
G02*
X364500000Y-100875000I0J-75000D01*
G01*
X364500000Y-102200000D01*
G75*
G02*
X364425000Y-102275000I-75000J0D01*
G01*
X364275000Y-102275000D01*
G75*
G02*
X364200000Y-102200000I0J75000D01*
G01*
X364200000Y-100875000D01*
G75*
G02*
X364275000Y-100800000I75000J0D01*
G01*
G37*
G36*
G01*
X364775000Y-100800000D02*
X364925000Y-100800000D01*
G75*
G02*
X365000000Y-100875000I0J-75000D01*
G01*
X365000000Y-102200000D01*
G75*
G02*
X364925000Y-102275000I-75000J0D01*
G01*
X364775000Y-102275000D01*
G75*
G02*
X364700000Y-102200000I0J75000D01*
G01*
X364700000Y-100875000D01*
G75*
G02*
X364775000Y-100800000I75000J0D01*
G01*
G37*
G36*
G01*
X365275000Y-100800000D02*
X365425000Y-100800000D01*
G75*
G02*
X365500000Y-100875000I0J-75000D01*
G01*
X365500000Y-102200000D01*
G75*
G02*
X365425000Y-102275000I-75000J0D01*
G01*
X365275000Y-102275000D01*
G75*
G02*
X365200000Y-102200000I0J75000D01*
G01*
X365200000Y-100875000D01*
G75*
G02*
X365275000Y-100800000I75000J0D01*
G01*
G37*
G36*
G01*
X365775000Y-100800000D02*
X365925000Y-100800000D01*
G75*
G02*
X366000000Y-100875000I0J-75000D01*
G01*
X366000000Y-102200000D01*
G75*
G02*
X365925000Y-102275000I-75000J0D01*
G01*
X365775000Y-102275000D01*
G75*
G02*
X365700000Y-102200000I0J75000D01*
G01*
X365700000Y-100875000D01*
G75*
G02*
X365775000Y-100800000I75000J0D01*
G01*
G37*
G36*
G01*
X366275000Y-100800000D02*
X366425000Y-100800000D01*
G75*
G02*
X366500000Y-100875000I0J-75000D01*
G01*
X366500000Y-102200000D01*
G75*
G02*
X366425000Y-102275000I-75000J0D01*
G01*
X366275000Y-102275000D01*
G75*
G02*
X366200000Y-102200000I0J75000D01*
G01*
X366200000Y-100875000D01*
G75*
G02*
X366275000Y-100800000I75000J0D01*
G01*
G37*
G36*
G01*
X366775000Y-100800000D02*
X366925000Y-100800000D01*
G75*
G02*
X367000000Y-100875000I0J-75000D01*
G01*
X367000000Y-102200000D01*
G75*
G02*
X366925000Y-102275000I-75000J0D01*
G01*
X366775000Y-102275000D01*
G75*
G02*
X366700000Y-102200000I0J75000D01*
G01*
X366700000Y-100875000D01*
G75*
G02*
X366775000Y-100800000I75000J0D01*
G01*
G37*
G36*
G01*
X367275000Y-100800000D02*
X367425000Y-100800000D01*
G75*
G02*
X367500000Y-100875000I0J-75000D01*
G01*
X367500000Y-102200000D01*
G75*
G02*
X367425000Y-102275000I-75000J0D01*
G01*
X367275000Y-102275000D01*
G75*
G02*
X367200000Y-102200000I0J75000D01*
G01*
X367200000Y-100875000D01*
G75*
G02*
X367275000Y-100800000I75000J0D01*
G01*
G37*
G36*
G01*
X367775000Y-100800000D02*
X367925000Y-100800000D01*
G75*
G02*
X368000000Y-100875000I0J-75000D01*
G01*
X368000000Y-102200000D01*
G75*
G02*
X367925000Y-102275000I-75000J0D01*
G01*
X367775000Y-102275000D01*
G75*
G02*
X367700000Y-102200000I0J75000D01*
G01*
X367700000Y-100875000D01*
G75*
G02*
X367775000Y-100800000I75000J0D01*
G01*
G37*
G36*
G01*
X368275000Y-100800000D02*
X368425000Y-100800000D01*
G75*
G02*
X368500000Y-100875000I0J-75000D01*
G01*
X368500000Y-102200000D01*
G75*
G02*
X368425000Y-102275000I-75000J0D01*
G01*
X368275000Y-102275000D01*
G75*
G02*
X368200000Y-102200000I0J75000D01*
G01*
X368200000Y-100875000D01*
G75*
G02*
X368275000Y-100800000I75000J0D01*
G01*
G37*
G36*
G01*
X368775000Y-100800000D02*
X368925000Y-100800000D01*
G75*
G02*
X369000000Y-100875000I0J-75000D01*
G01*
X369000000Y-102200000D01*
G75*
G02*
X368925000Y-102275000I-75000J0D01*
G01*
X368775000Y-102275000D01*
G75*
G02*
X368700000Y-102200000I0J75000D01*
G01*
X368700000Y-100875000D01*
G75*
G02*
X368775000Y-100800000I75000J0D01*
G01*
G37*
%TD*%
D19*
%TO.C,U9*%
G36*
X359700000Y-113533500D02*
G01*
X362825000Y-113533500D01*
X362825000Y-113950000D01*
X364300000Y-113950000D01*
X364300000Y-114850000D01*
X362825000Y-114850000D01*
X362825000Y-115266500D01*
X359700000Y-115266500D01*
X359700000Y-113533500D01*
G37*
D20*
X363650000Y-112900000D03*
X363650000Y-115900000D03*
%TD*%
D21*
%TO.C,SW4*%
X368250000Y-74100000D03*
X374550000Y-74100000D03*
X368250000Y-77900000D03*
X374550000Y-77900000D03*
%TD*%
%TO.C,SW3*%
X368250000Y-68100000D03*
X374550000Y-68100000D03*
X368250000Y-71900000D03*
X374550000Y-71900000D03*
%TD*%
%TO.C,SW2*%
X368250000Y-62100000D03*
X374550000Y-62100000D03*
X368250000Y-65900000D03*
X374550000Y-65900000D03*
%TD*%
%TO.C,SW1*%
X368250000Y-56100000D03*
X374550000Y-56100000D03*
X368250000Y-59900000D03*
X374550000Y-59900000D03*
%TD*%
%TO.C,R7*%
G36*
G01*
X350900001Y-67850000D02*
X349999999Y-67850000D01*
G75*
G02*
X349750000Y-67600001I0J249999D01*
G01*
X349750000Y-66899999D01*
G75*
G02*
X349999999Y-66650000I249999J0D01*
G01*
X350900001Y-66650000D01*
G75*
G02*
X351150000Y-66899999I0J-249999D01*
G01*
X351150000Y-67600001D01*
G75*
G02*
X350900001Y-67850000I-249999J0D01*
G01*
G37*
G36*
G01*
X350900001Y-69850000D02*
X349999999Y-69850000D01*
G75*
G02*
X349750000Y-69600001I0J249999D01*
G01*
X349750000Y-68899999D01*
G75*
G02*
X349999999Y-68650000I249999J0D01*
G01*
X350900001Y-68650000D01*
G75*
G02*
X351150000Y-68899999I0J-249999D01*
G01*
X351150000Y-69600001D01*
G75*
G02*
X350900001Y-69850000I-249999J0D01*
G01*
G37*
%TD*%
%TO.C,R6*%
G36*
G01*
X373501042Y-138935356D02*
X372864644Y-138298958D01*
G75*
G02*
X372864644Y-137945406I176776J176776D01*
G01*
X373359620Y-137450430D01*
G75*
G02*
X373713172Y-137450430I176776J-176776D01*
G01*
X374349570Y-138086828D01*
G75*
G02*
X374349570Y-138440380I-176776J-176776D01*
G01*
X373854594Y-138935356D01*
G75*
G02*
X373501042Y-138935356I-176776J176776D01*
G01*
G37*
G36*
G01*
X372086828Y-140349570D02*
X371450430Y-139713172D01*
G75*
G02*
X371450430Y-139359620I176776J176776D01*
G01*
X371945406Y-138864644D01*
G75*
G02*
X372298958Y-138864644I176776J-176776D01*
G01*
X372935356Y-139501042D01*
G75*
G02*
X372935356Y-139854594I-176776J-176776D01*
G01*
X372440380Y-140349570D01*
G75*
G02*
X372086828Y-140349570I-176776J176776D01*
G01*
G37*
%TD*%
%TO.C,R5*%
G36*
G01*
X356229999Y-133100000D02*
X357130001Y-133100000D01*
G75*
G02*
X357380000Y-133349999I0J-249999D01*
G01*
X357380000Y-134050001D01*
G75*
G02*
X357130001Y-134300000I-249999J0D01*
G01*
X356229999Y-134300000D01*
G75*
G02*
X355980000Y-134050001I0J249999D01*
G01*
X355980000Y-133349999D01*
G75*
G02*
X356229999Y-133100000I249999J0D01*
G01*
G37*
G36*
G01*
X356229999Y-131100000D02*
X357130001Y-131100000D01*
G75*
G02*
X357380000Y-131349999I0J-249999D01*
G01*
X357380000Y-132050001D01*
G75*
G02*
X357130001Y-132300000I-249999J0D01*
G01*
X356229999Y-132300000D01*
G75*
G02*
X355980000Y-132050001I0J249999D01*
G01*
X355980000Y-131349999D01*
G75*
G02*
X356229999Y-131100000I249999J0D01*
G01*
G37*
%TD*%
%TO.C,R4*%
G36*
G01*
X353549999Y-133100000D02*
X354450001Y-133100000D01*
G75*
G02*
X354700000Y-133349999I0J-249999D01*
G01*
X354700000Y-134050001D01*
G75*
G02*
X354450001Y-134300000I-249999J0D01*
G01*
X353549999Y-134300000D01*
G75*
G02*
X353300000Y-134050001I0J249999D01*
G01*
X353300000Y-133349999D01*
G75*
G02*
X353549999Y-133100000I249999J0D01*
G01*
G37*
G36*
G01*
X353549999Y-131100000D02*
X354450001Y-131100000D01*
G75*
G02*
X354700000Y-131349999I0J-249999D01*
G01*
X354700000Y-132050001D01*
G75*
G02*
X354450001Y-132300000I-249999J0D01*
G01*
X353549999Y-132300000D01*
G75*
G02*
X353300000Y-132050001I0J249999D01*
G01*
X353300000Y-131349999D01*
G75*
G02*
X353549999Y-131100000I249999J0D01*
G01*
G37*
%TD*%
%TO.C,R3*%
G36*
G01*
X373550001Y-90300000D02*
X372649999Y-90300000D01*
G75*
G02*
X372400000Y-90050001I0J249999D01*
G01*
X372400000Y-89349999D01*
G75*
G02*
X372649999Y-89100000I249999J0D01*
G01*
X373550001Y-89100000D01*
G75*
G02*
X373800000Y-89349999I0J-249999D01*
G01*
X373800000Y-90050001D01*
G75*
G02*
X373550001Y-90300000I-249999J0D01*
G01*
G37*
G36*
G01*
X373550001Y-92300000D02*
X372649999Y-92300000D01*
G75*
G02*
X372400000Y-92050001I0J249999D01*
G01*
X372400000Y-91349999D01*
G75*
G02*
X372649999Y-91100000I249999J0D01*
G01*
X373550001Y-91100000D01*
G75*
G02*
X373800000Y-91349999I0J-249999D01*
G01*
X373800000Y-92050001D01*
G75*
G02*
X373550001Y-92300000I-249999J0D01*
G01*
G37*
%TD*%
%TO.C,R2*%
G36*
G01*
X369200000Y-31149999D02*
X369200000Y-32050001D01*
G75*
G02*
X368950001Y-32300000I-249999J0D01*
G01*
X368249999Y-32300000D01*
G75*
G02*
X368000000Y-32050001I0J249999D01*
G01*
X368000000Y-31149999D01*
G75*
G02*
X368249999Y-30900000I249999J0D01*
G01*
X368950001Y-30900000D01*
G75*
G02*
X369200000Y-31149999I0J-249999D01*
G01*
G37*
G36*
G01*
X371200000Y-31149999D02*
X371200000Y-32050001D01*
G75*
G02*
X370950001Y-32300000I-249999J0D01*
G01*
X370249999Y-32300000D01*
G75*
G02*
X370000000Y-32050001I0J249999D01*
G01*
X370000000Y-31149999D01*
G75*
G02*
X370249999Y-30900000I249999J0D01*
G01*
X370950001Y-30900000D01*
G75*
G02*
X371200000Y-31149999I0J-249999D01*
G01*
G37*
%TD*%
%TO.C,R1*%
G36*
G01*
X373400000Y-33349999D02*
X373400000Y-34250001D01*
G75*
G02*
X373150001Y-34500000I-249999J0D01*
G01*
X372449999Y-34500000D01*
G75*
G02*
X372200000Y-34250001I0J249999D01*
G01*
X372200000Y-33349999D01*
G75*
G02*
X372449999Y-33100000I249999J0D01*
G01*
X373150001Y-33100000D01*
G75*
G02*
X373400000Y-33349999I0J-249999D01*
G01*
G37*
G36*
G01*
X371400000Y-33349999D02*
X371400000Y-34250001D01*
G75*
G02*
X371150001Y-34500000I-249999J0D01*
G01*
X370449999Y-34500000D01*
G75*
G02*
X370200000Y-34250001I0J249999D01*
G01*
X370200000Y-33349999D01*
G75*
G02*
X370449999Y-33100000I249999J0D01*
G01*
X371150001Y-33100000D01*
G75*
G02*
X371400000Y-33349999I0J-249999D01*
G01*
G37*
%TD*%
D22*
%TO.C,Q1*%
X353400000Y-69600000D03*
X354350000Y-72600000D03*
X352450000Y-72600000D03*
%TD*%
D23*
%TO.C,LS1*%
X353550000Y-60430000D03*
X358550000Y-60430000D03*
%TD*%
%TO.C,IC1*%
G36*
G01*
X367400000Y-45625000D02*
X367400000Y-45425000D01*
G75*
G02*
X367500000Y-45325000I100000J0D01*
G01*
X368925000Y-45325000D01*
G75*
G02*
X369025000Y-45425000I0J-100000D01*
G01*
X369025000Y-45625000D01*
G75*
G02*
X368925000Y-45725000I-100000J0D01*
G01*
X367500000Y-45725000D01*
G75*
G02*
X367400000Y-45625000I0J100000D01*
G01*
G37*
G36*
G01*
X367400000Y-46275000D02*
X367400000Y-46075000D01*
G75*
G02*
X367500000Y-45975000I100000J0D01*
G01*
X368925000Y-45975000D01*
G75*
G02*
X369025000Y-46075000I0J-100000D01*
G01*
X369025000Y-46275000D01*
G75*
G02*
X368925000Y-46375000I-100000J0D01*
G01*
X367500000Y-46375000D01*
G75*
G02*
X367400000Y-46275000I0J100000D01*
G01*
G37*
G36*
G01*
X367400000Y-46925000D02*
X367400000Y-46725000D01*
G75*
G02*
X367500000Y-46625000I100000J0D01*
G01*
X368925000Y-46625000D01*
G75*
G02*
X369025000Y-46725000I0J-100000D01*
G01*
X369025000Y-46925000D01*
G75*
G02*
X368925000Y-47025000I-100000J0D01*
G01*
X367500000Y-47025000D01*
G75*
G02*
X367400000Y-46925000I0J100000D01*
G01*
G37*
G36*
G01*
X367400000Y-47575000D02*
X367400000Y-47375000D01*
G75*
G02*
X367500000Y-47275000I100000J0D01*
G01*
X368925000Y-47275000D01*
G75*
G02*
X369025000Y-47375000I0J-100000D01*
G01*
X369025000Y-47575000D01*
G75*
G02*
X368925000Y-47675000I-100000J0D01*
G01*
X367500000Y-47675000D01*
G75*
G02*
X367400000Y-47575000I0J100000D01*
G01*
G37*
G36*
G01*
X363175000Y-47575000D02*
X363175000Y-47375000D01*
G75*
G02*
X363275000Y-47275000I100000J0D01*
G01*
X364700000Y-47275000D01*
G75*
G02*
X364800000Y-47375000I0J-100000D01*
G01*
X364800000Y-47575000D01*
G75*
G02*
X364700000Y-47675000I-100000J0D01*
G01*
X363275000Y-47675000D01*
G75*
G02*
X363175000Y-47575000I0J100000D01*
G01*
G37*
G36*
G01*
X363175000Y-46925000D02*
X363175000Y-46725000D01*
G75*
G02*
X363275000Y-46625000I100000J0D01*
G01*
X364700000Y-46625000D01*
G75*
G02*
X364800000Y-46725000I0J-100000D01*
G01*
X364800000Y-46925000D01*
G75*
G02*
X364700000Y-47025000I-100000J0D01*
G01*
X363275000Y-47025000D01*
G75*
G02*
X363175000Y-46925000I0J100000D01*
G01*
G37*
G36*
G01*
X363175000Y-46275000D02*
X363175000Y-46075000D01*
G75*
G02*
X363275000Y-45975000I100000J0D01*
G01*
X364700000Y-45975000D01*
G75*
G02*
X364800000Y-46075000I0J-100000D01*
G01*
X364800000Y-46275000D01*
G75*
G02*
X364700000Y-46375000I-100000J0D01*
G01*
X363275000Y-46375000D01*
G75*
G02*
X363175000Y-46275000I0J100000D01*
G01*
G37*
G36*
G01*
X363175000Y-45625000D02*
X363175000Y-45425000D01*
G75*
G02*
X363275000Y-45325000I100000J0D01*
G01*
X364700000Y-45325000D01*
G75*
G02*
X364800000Y-45425000I0J-100000D01*
G01*
X364800000Y-45625000D01*
G75*
G02*
X364700000Y-45725000I-100000J0D01*
G01*
X363275000Y-45725000D01*
G75*
G02*
X363175000Y-45625000I0J100000D01*
G01*
G37*
%TD*%
%TO.C,D1*%
G36*
G01*
X374465001Y-134043000D02*
X373564999Y-134043000D01*
G75*
G02*
X373315000Y-133793001I0J249999D01*
G01*
X373315000Y-133142999D01*
G75*
G02*
X373564999Y-132893000I249999J0D01*
G01*
X374465001Y-132893000D01*
G75*
G02*
X374715000Y-133142999I0J-249999D01*
G01*
X374715000Y-133793001D01*
G75*
G02*
X374465001Y-134043000I-249999J0D01*
G01*
G37*
G36*
G01*
X374465001Y-136093000D02*
X373564999Y-136093000D01*
G75*
G02*
X373315000Y-135843001I0J249999D01*
G01*
X373315000Y-135192999D01*
G75*
G02*
X373564999Y-134943000I249999J0D01*
G01*
X374465001Y-134943000D01*
G75*
G02*
X374715000Y-135192999I0J-249999D01*
G01*
X374715000Y-135843001D01*
G75*
G02*
X374465001Y-136093000I-249999J0D01*
G01*
G37*
%TD*%
%TO.C,C22*%
G36*
G01*
X355725000Y-72250000D02*
X356675000Y-72250000D01*
G75*
G02*
X356925000Y-72500000I0J-250000D01*
G01*
X356925000Y-73175000D01*
G75*
G02*
X356675000Y-73425000I-250000J0D01*
G01*
X355725000Y-73425000D01*
G75*
G02*
X355475000Y-73175000I0J250000D01*
G01*
X355475000Y-72500000D01*
G75*
G02*
X355725000Y-72250000I250000J0D01*
G01*
G37*
G36*
G01*
X355725000Y-70175000D02*
X356675000Y-70175000D01*
G75*
G02*
X356925000Y-70425000I0J-250000D01*
G01*
X356925000Y-71100000D01*
G75*
G02*
X356675000Y-71350000I-250000J0D01*
G01*
X355725000Y-71350000D01*
G75*
G02*
X355475000Y-71100000I0J250000D01*
G01*
X355475000Y-70425000D01*
G75*
G02*
X355725000Y-70175000I250000J0D01*
G01*
G37*
%TD*%
%TO.C,C21*%
G36*
G01*
X359350000Y-30525000D02*
X359350000Y-31475000D01*
G75*
G02*
X359100000Y-31725000I-250000J0D01*
G01*
X358425000Y-31725000D01*
G75*
G02*
X358175000Y-31475000I0J250000D01*
G01*
X358175000Y-30525000D01*
G75*
G02*
X358425000Y-30275000I250000J0D01*
G01*
X359100000Y-30275000D01*
G75*
G02*
X359350000Y-30525000I0J-250000D01*
G01*
G37*
G36*
G01*
X361425000Y-30525000D02*
X361425000Y-31475000D01*
G75*
G02*
X361175000Y-31725000I-250000J0D01*
G01*
X360500000Y-31725000D01*
G75*
G02*
X360250000Y-31475000I0J250000D01*
G01*
X360250000Y-30525000D01*
G75*
G02*
X360500000Y-30275000I250000J0D01*
G01*
X361175000Y-30275000D01*
G75*
G02*
X361425000Y-30525000I0J-250000D01*
G01*
G37*
%TD*%
%TO.C,C20*%
G36*
G01*
X369925000Y-47050000D02*
X370875000Y-47050000D01*
G75*
G02*
X371125000Y-47300000I0J-250000D01*
G01*
X371125000Y-47975000D01*
G75*
G02*
X370875000Y-48225000I-250000J0D01*
G01*
X369925000Y-48225000D01*
G75*
G02*
X369675000Y-47975000I0J250000D01*
G01*
X369675000Y-47300000D01*
G75*
G02*
X369925000Y-47050000I250000J0D01*
G01*
G37*
G36*
G01*
X369925000Y-44975000D02*
X370875000Y-44975000D01*
G75*
G02*
X371125000Y-45225000I0J-250000D01*
G01*
X371125000Y-45900000D01*
G75*
G02*
X370875000Y-46150000I-250000J0D01*
G01*
X369925000Y-46150000D01*
G75*
G02*
X369675000Y-45900000I0J250000D01*
G01*
X369675000Y-45225000D01*
G75*
G02*
X369925000Y-44975000I250000J0D01*
G01*
G37*
%TD*%
%TO.C,C19*%
G36*
G01*
X363012000Y-95175000D02*
X363012000Y-94225000D01*
G75*
G02*
X363262000Y-93975000I250000J0D01*
G01*
X363937000Y-93975000D01*
G75*
G02*
X364187000Y-94225000I0J-250000D01*
G01*
X364187000Y-95175000D01*
G75*
G02*
X363937000Y-95425000I-250000J0D01*
G01*
X363262000Y-95425000D01*
G75*
G02*
X363012000Y-95175000I0J250000D01*
G01*
G37*
G36*
G01*
X360937000Y-95175000D02*
X360937000Y-94225000D01*
G75*
G02*
X361187000Y-93975000I250000J0D01*
G01*
X361862000Y-93975000D01*
G75*
G02*
X362112000Y-94225000I0J-250000D01*
G01*
X362112000Y-95175000D01*
G75*
G02*
X361862000Y-95425000I-250000J0D01*
G01*
X361187000Y-95425000D01*
G75*
G02*
X360937000Y-95175000I0J250000D01*
G01*
G37*
%TD*%
%TO.C,C18*%
G36*
G01*
X369150000Y-94225000D02*
X369150000Y-95175000D01*
G75*
G02*
X368900000Y-95425000I-250000J0D01*
G01*
X368225000Y-95425000D01*
G75*
G02*
X367975000Y-95175000I0J250000D01*
G01*
X367975000Y-94225000D01*
G75*
G02*
X368225000Y-93975000I250000J0D01*
G01*
X368900000Y-93975000D01*
G75*
G02*
X369150000Y-94225000I0J-250000D01*
G01*
G37*
G36*
G01*
X371225000Y-94225000D02*
X371225000Y-95175000D01*
G75*
G02*
X370975000Y-95425000I-250000J0D01*
G01*
X370300000Y-95425000D01*
G75*
G02*
X370050000Y-95175000I0J250000D01*
G01*
X370050000Y-94225000D01*
G75*
G02*
X370300000Y-93975000I250000J0D01*
G01*
X370975000Y-93975000D01*
G75*
G02*
X371225000Y-94225000I0J-250000D01*
G01*
G37*
%TD*%
%TO.C,C17*%
G36*
G01*
X372625000Y-95650000D02*
X373575000Y-95650000D01*
G75*
G02*
X373825000Y-95900000I0J-250000D01*
G01*
X373825000Y-96575000D01*
G75*
G02*
X373575000Y-96825000I-250000J0D01*
G01*
X372625000Y-96825000D01*
G75*
G02*
X372375000Y-96575000I0J250000D01*
G01*
X372375000Y-95900000D01*
G75*
G02*
X372625000Y-95650000I250000J0D01*
G01*
G37*
G36*
G01*
X372625000Y-93575000D02*
X373575000Y-93575000D01*
G75*
G02*
X373825000Y-93825000I0J-250000D01*
G01*
X373825000Y-94500000D01*
G75*
G02*
X373575000Y-94750000I-250000J0D01*
G01*
X372625000Y-94750000D01*
G75*
G02*
X372375000Y-94500000I0J250000D01*
G01*
X372375000Y-93825000D01*
G75*
G02*
X372625000Y-93575000I250000J0D01*
G01*
G37*
%TD*%
%TO.C,C16*%
G36*
G01*
X374125000Y-99650000D02*
X375075000Y-99650000D01*
G75*
G02*
X375325000Y-99900000I0J-250000D01*
G01*
X375325000Y-100575000D01*
G75*
G02*
X375075000Y-100825000I-250000J0D01*
G01*
X374125000Y-100825000D01*
G75*
G02*
X373875000Y-100575000I0J250000D01*
G01*
X373875000Y-99900000D01*
G75*
G02*
X374125000Y-99650000I250000J0D01*
G01*
G37*
G36*
G01*
X374125000Y-97575000D02*
X375075000Y-97575000D01*
G75*
G02*
X375325000Y-97825000I0J-250000D01*
G01*
X375325000Y-98500000D01*
G75*
G02*
X375075000Y-98750000I-250000J0D01*
G01*
X374125000Y-98750000D01*
G75*
G02*
X373875000Y-98500000I0J250000D01*
G01*
X373875000Y-97825000D01*
G75*
G02*
X374125000Y-97575000I250000J0D01*
G01*
G37*
%TD*%
%TO.C,C15*%
G36*
G01*
X367050000Y-113175000D02*
X367050000Y-112225000D01*
G75*
G02*
X367300000Y-111975000I250000J0D01*
G01*
X367975000Y-111975000D01*
G75*
G02*
X368225000Y-112225000I0J-250000D01*
G01*
X368225000Y-113175000D01*
G75*
G02*
X367975000Y-113425000I-250000J0D01*
G01*
X367300000Y-113425000D01*
G75*
G02*
X367050000Y-113175000I0J250000D01*
G01*
G37*
G36*
G01*
X364975000Y-113175000D02*
X364975000Y-112225000D01*
G75*
G02*
X365225000Y-111975000I250000J0D01*
G01*
X365900000Y-111975000D01*
G75*
G02*
X366150000Y-112225000I0J-250000D01*
G01*
X366150000Y-113175000D01*
G75*
G02*
X365900000Y-113425000I-250000J0D01*
G01*
X365225000Y-113425000D01*
G75*
G02*
X364975000Y-113175000I0J250000D01*
G01*
G37*
%TD*%
%TO.C,C14*%
G36*
G01*
X367050000Y-115175000D02*
X367050000Y-114225000D01*
G75*
G02*
X367300000Y-113975000I250000J0D01*
G01*
X367975000Y-113975000D01*
G75*
G02*
X368225000Y-114225000I0J-250000D01*
G01*
X368225000Y-115175000D01*
G75*
G02*
X367975000Y-115425000I-250000J0D01*
G01*
X367300000Y-115425000D01*
G75*
G02*
X367050000Y-115175000I0J250000D01*
G01*
G37*
G36*
G01*
X364975000Y-115175000D02*
X364975000Y-114225000D01*
G75*
G02*
X365225000Y-113975000I250000J0D01*
G01*
X365900000Y-113975000D01*
G75*
G02*
X366150000Y-114225000I0J-250000D01*
G01*
X366150000Y-115175000D01*
G75*
G02*
X365900000Y-115425000I-250000J0D01*
G01*
X365225000Y-115425000D01*
G75*
G02*
X364975000Y-115175000I0J250000D01*
G01*
G37*
%TD*%
%TO.C,C13*%
G36*
G01*
X360075000Y-107712000D02*
X359125000Y-107712000D01*
G75*
G02*
X358875000Y-107462000I0J250000D01*
G01*
X358875000Y-106787000D01*
G75*
G02*
X359125000Y-106537000I250000J0D01*
G01*
X360075000Y-106537000D01*
G75*
G02*
X360325000Y-106787000I0J-250000D01*
G01*
X360325000Y-107462000D01*
G75*
G02*
X360075000Y-107712000I-250000J0D01*
G01*
G37*
G36*
G01*
X360075000Y-109787000D02*
X359125000Y-109787000D01*
G75*
G02*
X358875000Y-109537000I0J250000D01*
G01*
X358875000Y-108862000D01*
G75*
G02*
X359125000Y-108612000I250000J0D01*
G01*
X360075000Y-108612000D01*
G75*
G02*
X360325000Y-108862000I0J-250000D01*
G01*
X360325000Y-109537000D01*
G75*
G02*
X360075000Y-109787000I-250000J0D01*
G01*
G37*
%TD*%
%TO.C,C12*%
G36*
G01*
X370125000Y-112150000D02*
X371075000Y-112150000D01*
G75*
G02*
X371325000Y-112400000I0J-250000D01*
G01*
X371325000Y-113075000D01*
G75*
G02*
X371075000Y-113325000I-250000J0D01*
G01*
X370125000Y-113325000D01*
G75*
G02*
X369875000Y-113075000I0J250000D01*
G01*
X369875000Y-112400000D01*
G75*
G02*
X370125000Y-112150000I250000J0D01*
G01*
G37*
G36*
G01*
X370125000Y-110075000D02*
X371075000Y-110075000D01*
G75*
G02*
X371325000Y-110325000I0J-250000D01*
G01*
X371325000Y-111000000D01*
G75*
G02*
X371075000Y-111250000I-250000J0D01*
G01*
X370125000Y-111250000D01*
G75*
G02*
X369875000Y-111000000I0J250000D01*
G01*
X369875000Y-110325000D01*
G75*
G02*
X370125000Y-110075000I250000J0D01*
G01*
G37*
%TD*%
%TO.C,C11*%
G36*
G01*
X360558000Y-97975000D02*
X359608000Y-97975000D01*
G75*
G02*
X359358000Y-97725000I0J250000D01*
G01*
X359358000Y-97050000D01*
G75*
G02*
X359608000Y-96800000I250000J0D01*
G01*
X360558000Y-96800000D01*
G75*
G02*
X360808000Y-97050000I0J-250000D01*
G01*
X360808000Y-97725000D01*
G75*
G02*
X360558000Y-97975000I-250000J0D01*
G01*
G37*
G36*
G01*
X360558000Y-100050000D02*
X359608000Y-100050000D01*
G75*
G02*
X359358000Y-99800000I0J250000D01*
G01*
X359358000Y-99125000D01*
G75*
G02*
X359608000Y-98875000I250000J0D01*
G01*
X360558000Y-98875000D01*
G75*
G02*
X360808000Y-99125000I0J-250000D01*
G01*
X360808000Y-99800000D01*
G75*
G02*
X360558000Y-100050000I-250000J0D01*
G01*
G37*
%TD*%
%TO.C,C10*%
G36*
G01*
X372625000Y-103650000D02*
X373575000Y-103650000D01*
G75*
G02*
X373825000Y-103900000I0J-250000D01*
G01*
X373825000Y-104575000D01*
G75*
G02*
X373575000Y-104825000I-250000J0D01*
G01*
X372625000Y-104825000D01*
G75*
G02*
X372375000Y-104575000I0J250000D01*
G01*
X372375000Y-103900000D01*
G75*
G02*
X372625000Y-103650000I250000J0D01*
G01*
G37*
G36*
G01*
X372625000Y-101575000D02*
X373575000Y-101575000D01*
G75*
G02*
X373825000Y-101825000I0J-250000D01*
G01*
X373825000Y-102500000D01*
G75*
G02*
X373575000Y-102750000I-250000J0D01*
G01*
X372625000Y-102750000D01*
G75*
G02*
X372375000Y-102500000I0J250000D01*
G01*
X372375000Y-101825000D01*
G75*
G02*
X372625000Y-101575000I250000J0D01*
G01*
G37*
%TD*%
%TO.C,C9*%
G36*
G01*
X356950000Y-113775000D02*
X356950000Y-114725000D01*
G75*
G02*
X356700000Y-114975000I-250000J0D01*
G01*
X356025000Y-114975000D01*
G75*
G02*
X355775000Y-114725000I0J250000D01*
G01*
X355775000Y-113775000D01*
G75*
G02*
X356025000Y-113525000I250000J0D01*
G01*
X356700000Y-113525000D01*
G75*
G02*
X356950000Y-113775000I0J-250000D01*
G01*
G37*
G36*
G01*
X359025000Y-113775000D02*
X359025000Y-114725000D01*
G75*
G02*
X358775000Y-114975000I-250000J0D01*
G01*
X358100000Y-114975000D01*
G75*
G02*
X357850000Y-114725000I0J250000D01*
G01*
X357850000Y-113775000D01*
G75*
G02*
X358100000Y-113525000I250000J0D01*
G01*
X358775000Y-113525000D01*
G75*
G02*
X359025000Y-113775000I0J-250000D01*
G01*
G37*
%TD*%
%TO.C,C8*%
G36*
G01*
X364929000Y-77925000D02*
X364929000Y-78875000D01*
G75*
G02*
X364679000Y-79125000I-250000J0D01*
G01*
X364004000Y-79125000D01*
G75*
G02*
X363754000Y-78875000I0J250000D01*
G01*
X363754000Y-77925000D01*
G75*
G02*
X364004000Y-77675000I250000J0D01*
G01*
X364679000Y-77675000D01*
G75*
G02*
X364929000Y-77925000I0J-250000D01*
G01*
G37*
G36*
G01*
X367004000Y-77925000D02*
X367004000Y-78875000D01*
G75*
G02*
X366754000Y-79125000I-250000J0D01*
G01*
X366079000Y-79125000D01*
G75*
G02*
X365829000Y-78875000I0J250000D01*
G01*
X365829000Y-77925000D01*
G75*
G02*
X366079000Y-77675000I250000J0D01*
G01*
X366754000Y-77675000D01*
G75*
G02*
X367004000Y-77925000I0J-250000D01*
G01*
G37*
%TD*%
%TO.C,C7*%
G36*
G01*
X354650000Y-31675000D02*
X354650000Y-30725000D01*
G75*
G02*
X354900000Y-30475000I250000J0D01*
G01*
X355575000Y-30475000D01*
G75*
G02*
X355825000Y-30725000I0J-250000D01*
G01*
X355825000Y-31675000D01*
G75*
G02*
X355575000Y-31925000I-250000J0D01*
G01*
X354900000Y-31925000D01*
G75*
G02*
X354650000Y-31675000I0J250000D01*
G01*
G37*
G36*
G01*
X352575000Y-31675000D02*
X352575000Y-30725000D01*
G75*
G02*
X352825000Y-30475000I250000J0D01*
G01*
X353500000Y-30475000D01*
G75*
G02*
X353750000Y-30725000I0J-250000D01*
G01*
X353750000Y-31675000D01*
G75*
G02*
X353500000Y-31925000I-250000J0D01*
G01*
X352825000Y-31925000D01*
G75*
G02*
X352575000Y-31675000I0J250000D01*
G01*
G37*
%TD*%
%TO.C,C6*%
G36*
G01*
X41571370Y-118386931D02*
X41200175Y-119261411D01*
G75*
G02*
X40872366Y-119393854I-230126J97683D01*
G01*
X40251025Y-119130110D01*
G75*
G02*
X40118582Y-118802301I97683J230126D01*
G01*
X40489777Y-117927821D01*
G75*
G02*
X40817586Y-117795378I230126J-97683D01*
G01*
X41438927Y-118059122D01*
G75*
G02*
X41571370Y-118386931I-97683J-230126D01*
G01*
G37*
G36*
G01*
X43481418Y-119197699D02*
X43110223Y-120072179D01*
G75*
G02*
X42782414Y-120204622I-230126J97683D01*
G01*
X42161073Y-119940878D01*
G75*
G02*
X42028630Y-119613069I97683J230126D01*
G01*
X42399825Y-118738589D01*
G75*
G02*
X42727634Y-118606146I230126J-97683D01*
G01*
X43348975Y-118869890D01*
G75*
G02*
X43481418Y-119197699I-97683J-230126D01*
G01*
G37*
%TD*%
%TO.C,C5*%
G36*
G01*
X41039320Y-101854075D02*
X40874354Y-102789642D01*
G75*
G02*
X40584740Y-102992432I-246202J43412D01*
G01*
X39919994Y-102875219D01*
G75*
G02*
X39717204Y-102585605I43412J246202D01*
G01*
X39882170Y-101650038D01*
G75*
G02*
X40171784Y-101447248I246202J-43412D01*
G01*
X40836530Y-101564461D01*
G75*
G02*
X41039320Y-101854075I-43412J-246202D01*
G01*
G37*
G36*
G01*
X43082796Y-102214395D02*
X42917830Y-103149962D01*
G75*
G02*
X42628216Y-103352752I-246202J43412D01*
G01*
X41963470Y-103235539D01*
G75*
G02*
X41760680Y-102945925I43412J246202D01*
G01*
X41925646Y-102010358D01*
G75*
G02*
X42215260Y-101807568I246202J-43412D01*
G01*
X42880006Y-101924781D01*
G75*
G02*
X43082796Y-102214395I-43412J-246202D01*
G01*
G37*
%TD*%
%TO.C,C4*%
G36*
G01*
X39650000Y-86125000D02*
X39650000Y-87075000D01*
G75*
G02*
X39400000Y-87325000I-250000J0D01*
G01*
X38725000Y-87325000D01*
G75*
G02*
X38475000Y-87075000I0J250000D01*
G01*
X38475000Y-86125000D01*
G75*
G02*
X38725000Y-85875000I250000J0D01*
G01*
X39400000Y-85875000D01*
G75*
G02*
X39650000Y-86125000I0J-250000D01*
G01*
G37*
G36*
G01*
X41725000Y-86125000D02*
X41725000Y-87075000D01*
G75*
G02*
X41475000Y-87325000I-250000J0D01*
G01*
X40800000Y-87325000D01*
G75*
G02*
X40550000Y-87075000I0J250000D01*
G01*
X40550000Y-86125000D01*
G75*
G02*
X40800000Y-85875000I250000J0D01*
G01*
X41475000Y-85875000D01*
G75*
G02*
X41725000Y-86125000I0J-250000D01*
G01*
G37*
%TD*%
%TO.C,C3*%
G36*
G01*
X39750000Y-71525000D02*
X39750000Y-72475000D01*
G75*
G02*
X39500000Y-72725000I-250000J0D01*
G01*
X38825000Y-72725000D01*
G75*
G02*
X38575000Y-72475000I0J250000D01*
G01*
X38575000Y-71525000D01*
G75*
G02*
X38825000Y-71275000I250000J0D01*
G01*
X39500000Y-71275000D01*
G75*
G02*
X39750000Y-71525000I0J-250000D01*
G01*
G37*
G36*
G01*
X41825000Y-71525000D02*
X41825000Y-72475000D01*
G75*
G02*
X41575000Y-72725000I-250000J0D01*
G01*
X40900000Y-72725000D01*
G75*
G02*
X40650000Y-72475000I0J250000D01*
G01*
X40650000Y-71525000D01*
G75*
G02*
X40900000Y-71275000I250000J0D01*
G01*
X41575000Y-71275000D01*
G75*
G02*
X41825000Y-71525000I0J-250000D01*
G01*
G37*
%TD*%
%TO.C,C2*%
G36*
G01*
X38474354Y-55810358D02*
X38639320Y-56745925D01*
G75*
G02*
X38436530Y-57035539I-246202J-43412D01*
G01*
X37771784Y-57152752D01*
G75*
G02*
X37482170Y-56949962I-43412J246202D01*
G01*
X37317204Y-56014395D01*
G75*
G02*
X37519994Y-55724781I246202J43412D01*
G01*
X38184740Y-55607568D01*
G75*
G02*
X38474354Y-55810358I43412J-246202D01*
G01*
G37*
G36*
G01*
X40517830Y-55450038D02*
X40682796Y-56385605D01*
G75*
G02*
X40480006Y-56675219I-246202J-43412D01*
G01*
X39815260Y-56792432D01*
G75*
G02*
X39525646Y-56589642I-43412J246202D01*
G01*
X39360680Y-55654075D01*
G75*
G02*
X39563470Y-55364461I246202J43412D01*
G01*
X40228216Y-55247248D01*
G75*
G02*
X40517830Y-55450038I43412J-246202D01*
G01*
G37*
%TD*%
%TO.C,C1*%
G36*
G01*
X35800175Y-39538589D02*
X36171370Y-40413069D01*
G75*
G02*
X36038927Y-40740878I-230126J-97683D01*
G01*
X35417586Y-41004622D01*
G75*
G02*
X35089777Y-40872179I-97683J230126D01*
G01*
X34718582Y-39997699D01*
G75*
G02*
X34851025Y-39669890I230126J97683D01*
G01*
X35472366Y-39406146D01*
G75*
G02*
X35800175Y-39538589I97683J-230126D01*
G01*
G37*
G36*
G01*
X37710223Y-38727821D02*
X38081418Y-39602301D01*
G75*
G02*
X37948975Y-39930110I-230126J-97683D01*
G01*
X37327634Y-40193854D01*
G75*
G02*
X36999825Y-40061411I-97683J230126D01*
G01*
X36628630Y-39186931D01*
G75*
G02*
X36761073Y-38859122I230126J97683D01*
G01*
X37382414Y-38595378D01*
G75*
G02*
X37710223Y-38727821I97683J-230126D01*
G01*
G37*
%TD*%
M02*
